<?xml version="1.0" standalone="no"?>
<!DOCTYPE svg PUBLIC "-//W3C//DTD SVG 1.1//EN" "http://www.w3.org/Graphics/SVG/1.1/DTD/svg11.dtd" >
<svg xmlns="http://www.w3.org/2000/svg" xmlns:xlink="http://www.w3.org/1999/xlink" version="1.1">
<metadata>
Created by FontForge 20170924 at Tue Jun 30 20:37:10 2015
 By www-data
Copyright (c) 2014 by Julieta Ulanovsky. All rights reserved, Design Modifications and new weights 2015, Jasper @ Cannot Into Space Fonts.
</metadata>
<defs>
<font id="TruenoBd" horiz-adv-x="350" >
  <font-face 
    font-family="Trueno"
    font-weight="700"
    font-stretch="normal"
    units-per-em="1000"
    panose-1="0 0 8 0 0 0 0 0 0 0"
    ascent="800"
    descent="-200"
    x-height="539"
    cap-height="700"
    bbox="-275 -295 1445 975"
    underline-thickness="50"
    underline-position="-100"
    stemh="130"
    stemv="173"
    unicode-range="U+0020-FB02"
  />
<missing-glyph horiz-adv-x="500" 
d="M0 0v700h500v-700h-500zM250 395l170 255h-340zM280 350l170 -255v510zM80 50h340l-170 255zM50 605v-510l170 255z" />
    <glyph glyph-name="fi" unicode="fi" horiz-adv-x="697" 
d="M542 602c-53 0 -91 38 -91 92c0 53 38 91 91 91c54 0 92 -38 92 -91c0 -54 -38 -92 -92 -92zM101 520v45c0 121 91 185 206 185c37 0 77 -8 105 -21l-6 -137c-23 13 -50 21 -72 21c-36 0 -62 -18 -62 -59v-34h122v-114h-122v-406h-171v406h-73v114h73zM456 539h172v-539
h-172v539z" />
    <glyph glyph-name="fl" unicode="fl" horiz-adv-x="714" 
d="M101 520v52c0 108 83 181 206 180c37 0 78 -7 106 -19l-6 -138c-19 14 -43 22 -64 23c-42 1 -71 -28 -71 -71v-27h123l-1 -113h-122v-407h-171v407h-73l1 113h72zM640 742v-742h-173v742h173z" />
    <glyph glyph-name=".notdef" horiz-adv-x="500" 
d="M0 0v700h500v-700h-500zM250 395l170 255h-340zM280 350l170 -255v510zM80 50h340l-170 255zM50 605v-510l170 255z" />
    <glyph glyph-name="space" unicode=" " horiz-adv-x="232" 
 />
    <glyph glyph-name="exclam" unicode="!" horiz-adv-x="254" 
d="M216 518l-30 -278h-104l-30 278v178h164v-178zM131 159c49 0 84 -34 84 -83c0 -50 -35 -84 -84 -84c-48 0 -83 34 -83 84c0 49 35 83 83 83z" />
    <glyph glyph-name="quotedbl" unicode="&#x22;" horiz-adv-x="439" 
d="M190 427h-130v273h130v-273zM379 427h-130v273h130v-273z" />
    <glyph glyph-name="numbersign" unicode="#" horiz-adv-x="735" 
d="M570 418l-18 -143h135l-14 -119h-136l-19 -156h-124l19 156h-139l-19 -156h-124l19 156h-135l14 119h136l17 143h-133l13 119h135l20 163h124l-20 -163h140l20 163h124l-20 -163h135l-13 -119h-137zM446 418h-139l-18 -143h139z" />
    <glyph glyph-name="dollar" unicode="$" horiz-adv-x="644" 
d="M617 208c0 -124 -97 -196 -228 -211v-151h-132v155c-90 14 -176 52 -240 105l69 137c72 -63 180 -105 253 -105c56 0 91 21 91 61c0 124 -370 50 -370 298c0 107 76 181 197 204v148h132v-143c84 -9 166 -37 226 -76l-67 -139c-74 43 -167 73 -224 73
c-46 0 -77 -17 -77 -51c0 -121 370 -52 370 -305z" />
    <glyph glyph-name="percent" unicode="%" horiz-adv-x="1023" 
d="M227 703c120 0 195 -81 195 -211c0 -131 -75 -212 -195 -212s-196 81 -196 212c0 130 76 211 196 211zM178 0l500 701h162l-500 -701h-162zM227 611c-53 0 -85 -45 -85 -119s32 -119 85 -119s85 45 85 119s-32 119 -85 119zM797 420c120 0 195 -81 195 -211
c0 -131 -75 -213 -195 -213s-196 82 -196 213c0 130 76 211 196 211zM797 328c-53 0 -85 -45 -85 -119c0 -75 32 -120 85 -120s85 45 85 120c0 74 -32 119 -85 119z" />
    <glyph glyph-name="ampersand" unicode="&#x26;" horiz-adv-x="685" 
d="M591 -30l-99 96c-58 -48 -127 -74 -199 -74c-137 0 -238 85 -238 204c0 94 65 146 139 187c-42 60 -59 107 -59 157c0 102 78 168 200 168c118 0 200 -65 200 -157c0 -98 -81 -149 -165 -192c30 -33 66 -71 111 -115c19 33 35 71 47 112l110 -78
c-17 -46 -39 -88 -64 -124l104 -99zM270 540c0 -29 11 -61 36 -99c53 29 94 61 94 109c0 36 -25 61 -63 61c-42 0 -67 -30 -67 -71zM300 113c36 0 72 14 104 39c-58 58 -106 106 -143 148c-38 -25 -65 -53 -65 -92c0 -57 45 -95 104 -95z" />
    <glyph glyph-name="quotesingle" unicode="'" horiz-adv-x="250" 
d="M190 427h-130v273h130v-273z" />
    <glyph glyph-name="parenleft" unicode="(" horiz-adv-x="346" 
d="M189 742h155c-73 -117 -121 -270 -121 -433s48 -316 121 -433h-155c-82 117 -128 270 -128 433s46 316 128 433z" />
    <glyph glyph-name="parenright" unicode=")" horiz-adv-x="358" 
d="M51 742h155c82 -117 127 -270 127 -433s-45 -316 -127 -433h-155c73 117 120 270 120 433s-47 316 -120 433z" />
    <glyph glyph-name="asterisk" unicode="*" horiz-adv-x="378" 
d="M230 480l2 -96h-86l2 96l-82 -49l-43 74l83 47l-83 45l43 77l81 -50l-1 95h86l-1 -95l82 48l43 -75l-85 -45l85 -47l-43 -76z" />
    <glyph glyph-name="plus" unicode="+" horiz-adv-x="510" 
d="M477 272h-168v-168h-109v168h-167v109h167v168h109v-168h168v-109z" />
    <glyph glyph-name="comma" unicode="," horiz-adv-x="241" 
d="M122 158c44 0 82 -29 82 -82c0 -25 -9 -46 -22 -66l-73 -106h-82l45 107c-23 15 -33 39 -33 65c0 48 35 82 83 82z" />
    <glyph glyph-name="hyphen" unicode="-" horiz-adv-x="374" 
d="M319 252h-264v109h264v-109z" />
    <glyph glyph-name="period" unicode="." horiz-adv-x="243" 
d="M121 159c49 0 84 -34 84 -83c0 -50 -35 -84 -84 -84s-83 34 -83 84c0 49 34 83 83 83z" />
    <glyph glyph-name="slash" unicode="/" horiz-adv-x="353" 
d="M109 -111h-145l323 922h145z" />
    <glyph glyph-name="zero" unicode="0" horiz-adv-x="703" 
d="M352 706c198 0 309 -127 309 -355c0 -229 -111 -356 -309 -356c-200 0 -311 127 -311 356c0 228 111 355 311 355zM352 576c-90 0 -128 -65 -128 -225s38 -226 128 -226c88 0 127 66 127 226s-39 225 -127 225z" />
    <glyph glyph-name="one" unicode="1" horiz-adv-x="412" 
d="M314 0h-178v558h-129v143h307v-701z" />
    <glyph glyph-name="two" unicode="2" horiz-adv-x="600" 
d="M306 708c139 0 239 -72 239 -183c0 -76 -56 -155 -132 -233l-142 -151h295v-141h-524v115l250 265c39 41 67 88 67 120c0 40 -29 64 -79 64c-57 0 -127 -34 -191 -89l-67 128c88 66 184 105 284 105z" />
    <glyph glyph-name="three" unicode="3" horiz-adv-x="558" 
d="M320 416l33 -5c102 -16 174 -83 174 -191c0 -134 -105 -228 -268 -228c-96 0 -197 34 -261 85l72 135c52 -56 112 -85 175 -85c70 0 108 34 108 91c0 59 -39 88 -109 88h-112v95l156 162h-255v136h462v-101z" />
    <glyph glyph-name="four" unicode="4" horiz-adv-x="633" 
d="M211 289h148v150h165v-150h95v-135h-95v-154h-165v154h-332v119l221 427h171z" />
    <glyph glyph-name="five" unicode="5" horiz-adv-x="595" 
d="M532 559h-297v-113h63c160 0 265 -86 265 -211c0 -147 -110 -242 -279 -242c-92 0 -197 35 -270 87l71 135c52 -56 115 -86 178 -86c69 0 109 34 109 94c0 55 -40 87 -109 87c-36 0 -147 -2 -190 -5v395h459v-141z" />
    <glyph glyph-name="six" unicode="6" horiz-adv-x="632" 
d="M365 708c78 0 167 -22 226 -58l-68 -124c-40 29 -93 45 -147 45c-112 0 -166 -71 -164 -186c33 47 89 75 167 75c138 0 226 -90 226 -226c0 -148 -104 -242 -262 -242c-188 0 -302 133 -302 348c0 223 127 368 324 368zM339 330c-69 0 -108 -41 -108 -98
c0 -52 33 -98 105 -98c64 0 104 36 104 101c0 60 -37 95 -101 95z" />
    <glyph glyph-name="seven" unicode="7" horiz-adv-x="594" 
d="M578 579l-258 -579h-188l250 559h-193v-98l-156 98v141h545v-121z" />
    <glyph glyph-name="eight" unicode="8" horiz-adv-x="642" 
d="M320 708c154 0 251 -73 251 -188c0 -61 -33 -115 -88 -145c77 -32 125 -99 125 -177c0 -126 -112 -206 -287 -206s-287 79 -287 203c0 80 52 148 133 180c-59 33 -97 89 -97 150c0 112 98 183 250 183zM321 591c-65 0 -101 -29 -101 -81c0 -50 36 -78 101 -78
s101 28 101 78c0 52 -36 81 -101 81zM321 304c-77 0 -119 -33 -119 -91c0 -59 42 -92 119 -92s120 32 120 92c0 58 -43 91 -120 91z" />
    <glyph glyph-name="nine" unicode="9" horiz-adv-x="632" 
d="M270 -7c-78 0 -167 22 -226 58l68 124c40 -29 93 -45 147 -45c112 0 166 71 164 186c-33 -47 -89 -75 -167 -75c-138 0 -226 90 -226 226c0 148 104 242 262 242c188 0 302 -133 302 -348c0 -223 -127 -368 -324 -368zM296 371c69 0 108 41 108 98c0 52 -33 98 -105 98
c-64 0 -104 -36 -104 -101c0 -60 37 -95 101 -95z" />
    <glyph glyph-name="colon" unicode=":" horiz-adv-x="240" 
d="M121 456c49 0 84 -34 84 -83c0 -50 -35 -84 -84 -84s-83 34 -83 84c0 49 34 83 83 83zM121 159c49 0 84 -34 84 -83c0 -50 -35 -84 -84 -84s-83 34 -83 84c0 49 34 83 83 83z" />
    <glyph glyph-name="semicolon" unicode=";" horiz-adv-x="242" 
d="M121 289c-49 0 -83 34 -83 84c0 49 34 83 83 83s84 -34 84 -83c0 -50 -35 -84 -84 -84zM122 158c44 0 82 -29 82 -82c0 -25 -9 -46 -22 -66l-73 -106h-82l45 107c-23 15 -33 39 -33 65c0 48 35 82 83 82z" />
    <glyph glyph-name="less" unicode="&#x3c;" horiz-adv-x="510" 
d="M477 457l-332 -133l332 -133v-121l-444 185v139l444 185v-122z" />
    <glyph glyph-name="equal" unicode="=" horiz-adv-x="510" 
d="M477 380h-444v109h444v-109zM477 165h-444v109h444v-109z" />
    <glyph glyph-name="greater" unicode="&#x3e;" horiz-adv-x="510" 
d="M32 199l333 133l-333 133v121l445 -185v-139l-445 -185v122z" />
    <glyph glyph-name="question" unicode="?" horiz-adv-x="472" 
d="M136 475l-133 1c2 143 87 227 228 227c133 0 215 -62 215 -174c0 -152 -153 -170 -153 -290h-129c0 155 123 163 123 262c0 45 -27 65 -72 65c-50 0 -78 -29 -79 -91zM226 159c49 0 84 -34 84 -83c0 -50 -35 -84 -84 -84s-83 34 -83 84c0 49 34 83 83 83z" />
    <glyph glyph-name="at" unicode="@" horiz-adv-x="917" 
d="M465 700c245 0 428 -180 428 -426c0 -149 -80 -246 -192 -246c-60 0 -104 24 -117 78l-2 13c-39 -56 -94 -80 -151 -80c-112 0 -218 92 -218 231c0 128 80 235 205 235c80 0 131 -53 136 -64v53h122v-337c0 -36 15 -49 37 -49c42 0 83 67 83 163c0 191 -123 339 -331 339
c-190 0 -343 -152 -343 -342c0 -188 143 -326 330 -326c58 0 133 19 189 61l46 -80c-59 -44 -158 -72 -235 -72c-243 0 -428 178 -428 417c0 243 195 432 441 432zM443 394c-58 0 -97 -54 -97 -119c0 -68 38 -127 98 -127c64 0 102 57 102 126c0 66 -39 120 -103 120z" />
    <glyph glyph-name="A" unicode="A" horiz-adv-x="770" 
d="M535 129h-306l-51 -129h-183l302 700h183l295 -700h-190zM483 264l-100 259l-102 -259h202z" />
    <glyph glyph-name="B" unicode="B" horiz-adv-x="715" 
d="M70 700h331c157 0 257 -68 257 -175c0 -74 -46 -133 -120 -154c88 -17 144 -86 144 -177c0 -119 -104 -194 -269 -194h-343v700zM247 564v-144h144c52 0 85 28 85 73s-33 71 -85 71h-144zM247 292v-155h144c66 0 107 29 107 79c0 47 -41 76 -107 76h-144z" />
    <glyph glyph-name="C" unicode="C" horiz-adv-x="692" 
d="M398 706c104 0 212 -46 282 -118l-103 -122c-46 56 -114 91 -176 91c-111 0 -195 -88 -195 -203c0 -117 84 -206 195 -206c59 0 127 32 176 82l104 -110c-75 -77 -186 -128 -289 -128c-211 0 -368 155 -368 360c0 202 161 354 374 354z" />
    <glyph glyph-name="D" unicode="D" horiz-adv-x="767" 
d="M70 700h301c220 0 372 -142 372 -350c0 -207 -154 -350 -379 -350h-294v700zM248 558v-416h127c109 0 187 84 187 207c0 124 -82 209 -195 209h-119z" />
    <glyph glyph-name="E" unicode="E" horiz-adv-x="674" 
d="M618 560h-370v-139h334v-140h-334v-141h381v-140h-559v700h548v-140z" />
    <glyph glyph-name="F" unicode="F" horiz-adv-x="604" 
d="M589 560h-341v-162h314v-140h-314v-258h-178v700h519v-140z" />
    <glyph glyph-name="G" unicode="G" horiz-adv-x="743" 
d="M535 356h154v-273c-75 -53 -193 -91 -291 -91c-213 0 -374 154 -374 358c0 203 165 356 386 356c104 0 214 -40 286 -104l-100 -121c-51 47 -122 76 -187 76c-115 0 -203 -90 -203 -207c0 -119 89 -209 205 -209c36 0 82 13 124 34v181z" />
    <glyph glyph-name="H" unicode="H" horiz-adv-x="786" 
d="M716 0h-178v272h-290v-272h-178v700h178v-288h290v288h178v-700z" />
    <glyph glyph-name="I" unicode="I" horiz-adv-x="318" 
d="M248 0h-178v700h178v-700z" />
    <glyph glyph-name="J" unicode="J" horiz-adv-x="536" 
d="M299 701h179v-474c0 -149 -93 -235 -242 -235c-99 0 -179 41 -241 112l82 119c50 -52 106 -78 147 -78c47 0 75 29 75 86v470z" />
    <glyph glyph-name="K" unicode="K" horiz-adv-x="747" 
d="M526 0l-185 275l-93 -103v-172h-178v700h178v-303l268 303h206l-260 -290l277 -410h-213z" />
    <glyph glyph-name="L" unicode="L" horiz-adv-x="560" 
d="M248 149h297v-149h-475v700h178v-551z" />
    <glyph glyph-name="M" unicode="M" horiz-adv-x="910" 
d="M839 0h-157l-1 455l-168 -385h-116l-168 385v-455h-159v701h195l190 -417l190 417h194v-701z" />
    <glyph glyph-name="N" unicode="N" horiz-adv-x="786" 
d="M716 0h-157l-322 431v-431h-167v700h157l323 -432v432h166v-700z" />
    <glyph glyph-name="O" unicode="O" horiz-adv-x="805" 
d="M402 706c217 0 379 -152 379 -355c0 -204 -162 -359 -379 -359c-216 0 -378 154 -378 359c0 204 162 355 378 355zM404 557c-108 0 -198 -89 -198 -207s91 -209 198 -209c108 0 194 91 194 209s-86 207 -194 207z" />
    <glyph glyph-name="P" unicode="P" horiz-adv-x="680" 
d="M70 700h305c179 0 282 -88 282 -244c0 -164 -103 -259 -282 -259h-127v-197h-178v700zM248 560v-223h118c78 0 123 39 123 113c0 73 -45 110 -123 110h-118z" />
    <glyph glyph-name="Q" unicode="Q" horiz-adv-x="810" 
d="M753 22l63 -110c-54 -48 -133 -77 -203 -77c-97 0 -179 60 -225 157c-209 7 -364 158 -364 359c0 204 162 355 378 355c217 0 379 -152 379 -355c0 -155 -93 -282 -233 -334c24 -30 53 -48 85 -48s77 20 120 53zM206 350c0 -118 91 -209 198 -209c108 0 194 91 194 209
s-86 207 -194 207s-198 -89 -198 -207z" />
    <glyph glyph-name="R" unicode="R" horiz-adv-x="724" 
d="M492 0l-104 197h-5h-135v-197h-178v700h313c185 0 291 -88 291 -244c0 -107 -45 -184 -127 -225l147 -231h-202zM248 337h135c77 0 122 39 122 113c0 73 -45 110 -122 110h-135v-223z" />
    <glyph glyph-name="S" unicode="S" horiz-adv-x="644" 
d="M339 708c101 0 204 -31 276 -78l-67 -139c-74 43 -167 73 -224 73c-46 0 -77 -17 -77 -51c0 -121 370 -52 370 -305c0 -140 -124 -214 -280 -214c-117 0 -237 44 -320 112l69 137c72 -63 180 -105 253 -105c56 0 91 21 91 61c0 124 -370 50 -370 298
c0 129 111 211 279 211z" />
    <glyph glyph-name="T" unicode="T" horiz-adv-x="611" 
d="M605 557h-211v-557h-178v557h-209v144h598v-144z" />
    <glyph glyph-name="U" unicode="U" horiz-adv-x="758" 
d="M700 700v-406c0 -185 -123 -302 -319 -302c-197 0 -323 117 -323 302v406h178v-406c0 -95 61 -153 146 -153c84 0 141 58 141 153v406h177z" />
    <glyph glyph-name="V" unicode="V" horiz-adv-x="729" 
d="M455 0h-184l-272 700h190l179 -515l179 515h183z" />
    <glyph glyph-name="W" unicode="W" horiz-adv-x="1081" 
d="M857 0h-183l-130 484l-132 -484h-184l-229 700h190l137 -515l134 515h174l137 -515l135 515h182z" />
    <glyph glyph-name="X" unicode="X" horiz-adv-x="734" 
d="M476 366l251 -366h-213l-151 223l-151 -223h-207l250 358l-234 342h207l135 -204l135 204h209z" />
    <glyph glyph-name="Y" unicode="Y" horiz-adv-x="680" 
d="M431 226v-226h-177v221l-259 479h178l169 -305l165 305h178z" />
    <glyph glyph-name="Z" unicode="Z" horiz-adv-x="675" 
d="M640 586l-374 -445h380v-141h-618v114l375 445h-362v141h599v-114z" />
    <glyph glyph-name="bracketleft" unicode="[" horiz-adv-x="362" 
d="M344 614h-120v-610h120v-128h-274v866h274v-128z" />
    <glyph glyph-name="backslash" unicode="\" horiz-adv-x="455" 
d="M158 811l323 -922h-145l-323 922h145z" />
    <glyph glyph-name="bracketright" unicode="]" horiz-adv-x="433" 
d="M363 742v-866h-274v128h120v610h-120v128h274z" />
    <glyph glyph-name="asciicircum" unicode="^" horiz-adv-x="575" 
d="M420 138l-133 289l-133 -289h-122l186 387h139l185 -387h-122z" />
    <glyph glyph-name="underscore" unicode="_" horiz-adv-x="583" 
d="M583 -204h-583v94h583v-94z" />
    <glyph glyph-name="grave" unicode="`" 
d="M303 600h-132l-130 113l156 55z" />
    <glyph glyph-name="a" unicode="a" horiz-adv-x="600" 
d="M311 547c148 0 234 -73 235 -195v-352h-169v62c-35 -46 -92 -70 -165 -70c-115 0 -185 70 -185 169c0 102 73 162 207 163h142v8c0 53 -35 85 -105 85c-45 0 -104 -16 -161 -45l-49 114c84 39 160 61 250 61zM265 109c54 0 100 30 111 74v48h-109c-52 0 -78 -18 -78 -58
c0 -39 28 -64 76 -64z" />
    <glyph glyph-name="b" unicode="b" horiz-adv-x="685" 
d="M408 545c152 0 253 -111 253 -278c0 -164 -98 -273 -249 -273c-70 0 -127 28 -165 78v-72h-173v742h173v-274c38 49 93 77 161 77zM366 131c72 0 121 58 121 141c0 82 -49 140 -121 140c-70 0 -119 -58 -119 -140c0 -84 49 -141 119 -141z" />
    <glyph glyph-name="c" unicode="c" horiz-adv-x="562" 
d="M304 545c107 0 193 -44 240 -121l-124 -75c-25 35 -62 56 -109 56c-67 0 -113 -55 -113 -136c0 -83 46 -137 113 -137c49 0 87 20 110 61l126 -74c-44 -79 -131 -125 -245 -125c-166 0 -278 110 -278 274c0 166 113 277 280 277z" />
    <glyph glyph-name="d" unicode="d" horiz-adv-x="686" 
d="M612 742v-742h-173v71c-38 -50 -93 -78 -162 -78c-152 0 -252 112 -252 279c0 165 99 274 248 274c71 0 128 -28 166 -78v274h173zM319 127c72 0 120 58 120 141s-48 140 -120 140s-120 -57 -121 -140c1 -83 49 -141 121 -141z" />
    <glyph glyph-name="e" unicode="e" horiz-adv-x="602" 
d="M305 545c190 0 284 -125 272 -322h-379c17 -64 63 -100 127 -100c47 0 93 19 129 55l91 -89c-55 -60 -136 -95 -235 -95c-176 0 -286 110 -286 274c0 167 114 277 281 277zM195 316h216c0 66 -42 109 -104 109c-60 0 -101 -44 -112 -109z" />
    <glyph glyph-name="f" unicode="f" horiz-adv-x="386" 
d="M334 613c-35 1 -62 -19 -62 -59v-39h122v-114h-122v-401h-171v401h-73v114h73v50c0 119 90 185 206 185c53 0 110 -14 151 -38l-61 -121c-19 14 -43 22 -63 22z" />
    <glyph glyph-name="g" unicode="g" horiz-adv-x="647" 
d="M584 539v-490c0 -153 -118 -250 -292 -250c-94 0 -179 30 -240 71l60 117c49 -34 109 -54 167 -54c83 0 133 44 133 111v57c-35 -46 -88 -72 -155 -72c-136 0 -232 104 -232 261c0 153 93 255 228 255c69 1 123 -25 159 -72v66h172zM300 154c67 0 112 54 112 131
c0 79 -45 132 -112 132c-68 0 -114 -54 -114 -132c0 -77 46 -131 114 -131z" />
    <glyph glyph-name="h" unicode="h" horiz-adv-x="678" 
d="M428 547c119 0 197 -81 197 -207v-340h-173v292c0 63 -36 102 -95 102c-68 0 -110 -54 -110 -128v-266h-173v742h173v-292c38 64 101 96 181 97z" />
    <glyph glyph-name="i" unicode="i" horiz-adv-x="311" 
d="M156 785c53 0 91 -38 91 -91c0 -54 -38 -92 -91 -92s-91 38 -91 92c0 53 38 91 91 91zM241 0h-172v539h172v-539z" />
    <glyph glyph-name="j" unicode="j" horiz-adv-x="319" 
d="M157 785c58 0 98 -38 98 -92c0 -53 -40 -91 -98 -91c-57 0 -98 38 -98 91c0 54 41 92 98 92zM244 539v-555c0 -121 -86 -186 -196 -185c-50 0 -98 12 -135 35l44 121c20 -12 41 -19 61 -19c32 -1 53 18 53 59v544h173z" />
    <glyph glyph-name="k" unicode="k" horiz-adv-x="630" 
d="M305 208l-58 -61v-147h-173v742h173v-392l178 189h196l-198 -207l204 -332h-205z" />
    <glyph glyph-name="l" unicode="l" horiz-adv-x="321" 
d="M247 0h-173v742h173v-742z" />
    <glyph glyph-name="m" unicode="m" horiz-adv-x="1037" 
d="M789 547c118 0 194 -81 194 -207v-340h-172v292c0 64 -36 103 -93 103c-65 -2 -105 -55 -105 -128v-267h-173v292c0 64 -35 103 -92 103c-66 -2 -107 -55 -107 -128v-267h-172v539h172v-89c37 64 99 96 178 97c88 0 153 -46 180 -122c35 80 101 121 190 122z" />
    <glyph glyph-name="n" unicode="n" horiz-adv-x="673" 
d="M422 547c119 0 197 -81 197 -207v-340h-172v292c0 63 -37 102 -95 102c-63 0 -103 -45 -110 -109v-285h-173v539h173v-88c38 63 100 95 180 96z" />
    <glyph glyph-name="o" unicode="o" horiz-adv-x="637" 
d="M319 545c176 0 294 -109 294 -275s-118 -276 -294 -276c-177 0 -295 110 -295 276s118 275 295 275zM319 408c-72 0 -121 -57 -121 -140c0 -84 49 -140 121 -140c71 0 120 56 120 140c0 83 -49 140 -120 140z" />
    <glyph glyph-name="p" unicode="p" horiz-adv-x="685" 
d="M408 545c152 0 253 -111 253 -278c0 -164 -98 -273 -249 -273c-70 0 -127 28 -165 78v-266h-173v733h173v-71c38 49 93 77 161 77zM366 131c72 0 121 58 121 141c0 82 -49 140 -121 140c-70 0 -119 -58 -119 -140c0 -84 49 -141 119 -141z" />
    <glyph glyph-name="q" unicode="q" horiz-adv-x="686" 
d="M612 539v-733h-173v265c-38 -50 -93 -78 -162 -78c-152 0 -252 112 -252 279c0 165 99 274 248 274c71 0 128 -28 166 -78v71h173zM319 127c72 0 120 58 120 141s-48 140 -120 140s-120 -57 -121 -140c1 -83 49 -141 121 -141z" />
    <glyph glyph-name="r" unicode="r" horiz-adv-x="427" 
d="M242 539v-91c37 63 98 98 175 99v-156c-100 9 -166 -38 -175 -114v-277h-173v539h173z" />
    <glyph glyph-name="s" unicode="s" horiz-adv-x="513" 
d="M262 547c78 0 156 -22 222 -61l-59 -112c-65 35 -125 54 -170 54c-31 0 -53 -12 -53 -37c0 -74 284 -38 283 -226c0 -111 -97 -172 -227 -172c-90 0 -177 26 -242 76l55 110c61 -43 131 -67 191 -67c34 0 59 12 59 37c0 79 -279 38 -278 227c0 111 94 171 219 171z" />
    <glyph glyph-name="t" unicode="t" horiz-adv-x="435" 
d="M383 149l34 -120c-39 -23 -92 -37 -144 -37c-104 0 -179 59 -179 171v238h-75v113h75v150h172v-149h141v-114h-141v-211c0 -42 18 -60 50 -59c18 0 41 7 67 18z" />
    <glyph glyph-name="u" unicode="u" horiz-adv-x="663" 
d="M594 539v-539h-173v89c-37 -64 -97 -96 -175 -96c-117 0 -193 80 -193 206v340h173v-291c0 -64 35 -103 90 -103c66 1 105 55 105 128v266h173z" />
    <glyph glyph-name="v" unicode="v" horiz-adv-x="571" 
d="M375 0h-177l-203 539h178l116 -381l117 381h172z" />
    <glyph glyph-name="w" unicode="w" horiz-adv-x="937" 
d="M747 0h-171l-106 342l-106 -342h-172l-197 539h176l111 -373l108 373h165l111 -373l109 373h169z" />
    <glyph glyph-name="x" unicode="x" horiz-adv-x="606" 
d="M304 384l96 155h189l-171 -262l183 -277h-199l-98 169l-110 -169h-190l184 276l-172 263h198z" />
    <glyph glyph-name="y" unicode="y" horiz-adv-x="580" 
d="M587 539l-233 -595c-40 -98 -108 -146 -208 -146c-60 0 -109 18 -157 55l72 118c25 -20 46 -29 71 -29c31 0 53 14 67 43l13 27l-224 527h178l132 -358l117 358h172z" />
    <glyph glyph-name="z" unicode="z" horiz-adv-x="553" 
d="M515 435l-264 -305h273v-130h-490v104l265 305h-255v130h471v-104z" />
    <glyph glyph-name="braceleft" unicode="{" horiz-adv-x="356" 
d="M254 551v-122c0 -72 -22 -106 -84 -120c62 -15 84 -49 84 -121v-121c0 -47 19 -65 88 -65v-128h-67c-130 0 -175 37 -175 140v185c0 32 -11 44 -37 44h-39v132h39c26 0 37 11 37 43v186c0 103 45 139 175 139h67v-127c-69 0 -88 -18 -88 -65z" />
    <glyph glyph-name="bar" unicode="|" horiz-adv-x="299" 
d="M214 -110h-129v913h129v-913z" />
    <glyph glyph-name="braceright" unicode="}" horiz-adv-x="391" 
d="M384 375v-132h-38c-27 0 -38 -12 -38 -44v-185c0 -103 -45 -140 -175 -140h-66v128c68 0 88 18 88 65v121c0 72 21 106 84 120c-63 15 -84 49 -84 121v122c0 47 -20 65 -88 65v127h66c130 0 175 -36 175 -139v-186c0 -32 11 -43 38 -43h38z" />
    <glyph glyph-name="asciitilde" unicode="~" horiz-adv-x="510" 
d="M169 412c67 0 105 -51 137 -51c22 0 33 16 33 46h115c0 -114 -37 -170 -113 -170c-68 0 -104 51 -137 51c-21 0 -32 -15 -32 -46h-116c0 115 37 170 113 170z" />
    <glyph glyph-name="nbspace" unicode="&#xa0;" horiz-adv-x="232" 
 />
    <glyph glyph-name="exclamdown" unicode="&#xa1;" horiz-adv-x="254" 
d="M136 379c-50 0 -84 34 -84 83c0 50 34 85 84 85c48 0 83 -35 83 -85c0 -49 -35 -83 -83 -83zM51 21l30 277h104l30 -277v-179h-164v179z" />
    <glyph glyph-name="cent" unicode="&#xa2;" horiz-adv-x="559" 
d="M421 193l126 -74c-34 -61 -93 -102 -170 -118v-155h-134v153c-133 23 -219 125 -219 269c0 145 86 248 219 272v159h134v-161c73 -16 131 -55 167 -114l-124 -75c-25 35 -62 56 -109 56c-67 0 -113 -55 -113 -136c0 -83 46 -137 113 -137c49 0 87 20 110 61z" />
    <glyph glyph-name="sterling" unicode="&#xa3;" horiz-adv-x="557" 
d="M283 134h258v-134h-513v134h76v147h-76v118h76v75c0 149 87 234 238 234c81 0 158 -31 213 -86l-67 -130c-42 44 -86 67 -127 67c-51 0 -78 -30 -78 -89v-71h167v-118h-167v-147z" />
    <glyph glyph-name="currency" unicode="&#xa4;" horiz-adv-x="701" 
d="M612 321c0 -48 -13 -93 -37 -131l102 -102l-97 -97l-103 104c-38 -20 -81 -32 -127 -32c-45 0 -88 12 -125 32l-104 -104l-97 97l102 102c-23 38 -36 83 -36 131c0 46 12 90 34 127l-100 99l97 97l99 -99c38 22 83 35 130 35c48 0 93 -13 132 -35l98 99l97 -97l-99 -99
c22 -37 34 -81 34 -127zM350 198c70 0 127 55 127 123c0 69 -57 125 -127 125c-69 0 -125 -56 -125 -125c0 -68 56 -123 125 -123z" />
    <glyph glyph-name="yen" unicode="&#xa5;" horiz-adv-x="665" 
d="M491 339h115v-65h-150l-25 -47v-18h175v-66h-175v-143h-177v143h-185v66h185v13l-28 52h-157v65h122l-196 362h178l169 -307l165 307h178z" />
    <glyph glyph-name="brokenbar" unicode="&#xa6;" horiz-adv-x="299" 
d="M214 461h-129v342h129v-342zM214 -110h-129v343h129v-343z" />
    <glyph glyph-name="section" unicode="&#xa7;" horiz-adv-x="545" 
d="M282 694c74 0 150 -20 223 -61l-52 -106c-69 36 -128 53 -169 53s-64 -15 -64 -38c0 -83 300 -54 300 -235c0 -59 -40 -109 -99 -133c44 -26 65 -50 65 -102c0 -93 -87 -160 -225 -160c-87 0 -175 27 -245 77l49 107c66 -45 134 -68 192 -68c44 0 70 17 70 39
c0 81 -295 54 -295 233c0 62 39 108 105 132c-56 30 -72 59 -72 103c0 93 84 159 217 159zM259 353c-48 0 -73 -16 -73 -42c0 -33 44 -55 101 -55c50 0 74 17 74 42c0 33 -45 55 -102 55z" />
    <glyph glyph-name="dieresis" unicode="&#xa8;" horiz-adv-x="368" 
d="M79 770c45 0 77 -33 77 -78c0 -46 -32 -78 -77 -78c-46 0 -78 32 -78 78c0 45 32 78 78 78zM272 770c45 0 78 -33 78 -78c0 -46 -33 -78 -78 -78c-46 0 -78 32 -78 78c0 45 32 78 78 78z" />
    <glyph glyph-name="copyright" unicode="&#xa9;" horiz-adv-x="725" 
d="M363 689c190 0 338 -153 338 -339c0 -185 -149 -341 -340 -341c-190 0 -337 154 -337 339s148 341 339 341zM363 609c-147 0 -259 -119 -259 -261s111 -259 257 -259c147 0 261 119 261 261s-113 259 -259 259zM369 515c48 0 99 -21 132 -55l-48 -57
c-22 26 -53 42 -82 42c-53 0 -93 -41 -93 -94c0 -55 40 -97 93 -97c27 0 59 15 82 38l48 -51c-35 -37 -86 -60 -135 -60c-98 0 -172 72 -172 168c0 95 75 166 175 166z" />
    <glyph glyph-name="ordfeminine" unicode="&#xaa;" horiz-adv-x="393" 
d="M204 785c95 0 152 -43 151 -117v-210h-116v41c-22 -30 -58 -46 -105 -46c-70 0 -113 40 -113 100c0 62 47 96 131 96h87v5c0 29 -21 46 -63 46c-29 0 -67 -9 -106 -24l-28 76c55 21 112 33 162 33zM175 526c27 0 50 11 64 35v34h-62c-28 0 -44 -11 -44 -33s15 -36 42 -36
z" />
    <glyph glyph-name="guillemotleft" unicode="&#xab;" horiz-adv-x="502" 
d="M156 266l106 -184h-140l-120 184l120 184h140zM377 266l107 -184h-140l-120 184l120 184h140z" />
    <glyph glyph-name="logicalnot" unicode="&#xac;" horiz-adv-x="578" 
d="M514 426v-289h-124v180h-357v109h481z" />
    <glyph glyph-name="softhyphen" unicode="&#xad;" horiz-adv-x="374" 
d="M319 252h-264v109h264v-109z" />
    <glyph glyph-name="registered" unicode="&#xae;" horiz-adv-x="725" 
d="M363 689c190 0 338 -153 338 -339c0 -185 -149 -341 -340 -341c-190 0 -337 154 -337 339s148 341 339 341zM361 89c147 0 261 119 261 261s-113 259 -259 259c-147 0 -259 -119 -259 -261s111 -259 257 -259zM505 409c0 -49 -21 -85 -58 -104l68 -105h-91l-48 90h-4h-59
v-90h-79v320h138c85 0 133 -40 133 -111zM313 352h59c36 0 57 20 57 54s-21 53 -57 53h-59v-107z" />
    <glyph glyph-name="macron" unicode="&#xaf;" 
d="M314 632h-278v116h278v-116z" />
    <glyph glyph-name="degree" unicode="&#xb0;" horiz-adv-x="374" 
d="M202 817c66 0 119 -53 119 -118s-53 -118 -119 -118c-65 0 -119 53 -119 118s54 118 119 118zM202 750c-28 0 -52 -23 -52 -51s24 -51 52 -51c29 0 52 23 52 51s-23 51 -52 51z" />
    <glyph glyph-name="plusminus" unicode="&#xb1;" horiz-adv-x="510" 
d="M477 453v-105h-168v-161h-109v161h-167v105h167v162h109v-162h168zM33 112h444v-110h-444v110z" />
    <glyph glyph-name="twosuperior" unicode="&#xb2;" horiz-adv-x="389" 
d="M201 705c88 0 151 -44 151 -110c0 -47 -34 -93 -83 -140l-82 -81h176v-91h-331v75l155 155c21 22 38 48 38 65c0 21 -16 32 -43 32c-34 0 -78 -20 -118 -53l-46 84c57 40 119 64 183 64z" />
    <glyph glyph-name="threesuperior" unicode="&#xb3;" horiz-adv-x="365" 
d="M217 533l20 -4c60 -10 104 -50 104 -114c0 -80 -66 -137 -169 -137c-62 0 -127 21 -167 52l49 89c32 -36 69 -54 108 -54c38 0 60 18 60 49s-22 47 -61 47h-72v61l94 92h-157v85h295v-67z" />
    <glyph glyph-name="acute" unicode="&#xb4;" 
d="M306 713l-130 -113h-132l106 168z" />
    <glyph glyph-name="mu" unicode="&#xb5;" horiz-adv-x="684" 
d="M615 539v-539h-173v89c-37 -64 -97 -96 -175 -96l-20 1v-188h-173v733h173v-291c0 -64 35 -103 90 -103c66 1 105 55 105 128v266h173z" />
    <glyph glyph-name="paragraph" unicode="&#xb6;" horiz-adv-x="650" 
d="M580 -107h-129v752h-100v-752h-128v432h-27c-161 0 -202 124 -202 204c0 108 67 213 243 213h343v-849z" />
    <glyph glyph-name="periodcentered" unicode="&#xb7;" horiz-adv-x="240" 
d="M119 371c48 0 82 -34 82 -82s-34 -82 -82 -82c-47 0 -81 34 -81 82s34 82 81 82z" />
    <glyph glyph-name="cedilla" unicode="&#xb8;" 
d="M250 14l-33 -65c41 -11 68 -40 68 -81c0 -63 -52 -103 -125 -103c-31 0 -67 12 -95 31l32 71c13 -12 32 -20 49 -20c26 0 42 17 42 37s-16 36 -46 36c-10 0 -24 -2 -36 -4l47 98h97z" />
    <glyph glyph-name="onesuperior" unicode="&#xb9;" horiz-adv-x="274" 
d="M89 283v324h-79v93h201v-417h-122z" />
    <glyph glyph-name="ordmasculine" unicode="&#xba;" horiz-adv-x="413" 
d="M206 785c113 0 187 -66 187 -166c0 -99 -74 -165 -187 -165c-112 0 -186 66 -186 165c0 100 74 166 186 166zM206 694c-40 0 -67 -30 -67 -76s27 -76 67 -76s67 30 67 76s-27 76 -67 76z" />
    <glyph glyph-name="guillemotright" unicode="&#xbb;" horiz-adv-x="508" 
d="M141 266l-106 184h140l120 -184l-120 -184h-140zM363 266l-106 184h140l120 -184l-120 -184h-140z" />
    <glyph glyph-name="onequarter" unicode="&#xbc;" horiz-adv-x="881" 
d="M67 0l500 701h162l-500 -701h-162zM89 283v324h-79v93h201v-417h-122zM697 171v89h113v-89h58v-84h-58v-87h-113v87h-207v79l134 251h117l-127 -246h83z" />
    <glyph glyph-name="onehalf" unicode="&#xbd;" horiz-adv-x="902" 
d="M67 0l500 701h162l-500 -701h-162zM89 283v324h-79v93h201v-417h-122zM714 422c88 0 151 -44 151 -111c0 -46 -34 -92 -83 -139l-82 -82h176v-90h-331v75l155 154c21 23 38 48 38 66c0 20 -16 32 -43 32c-34 0 -78 -21 -118 -53l-46 84c57 40 119 64 183 64z" />
    <glyph glyph-name="threequarters" unicode="&#xbe;" horiz-adv-x="940" 
d="M127 0l500 701h162l-500 -701h-162zM217 533l20 -4c60 -10 104 -50 104 -114c0 -80 -66 -137 -169 -137c-62 0 -127 21 -167 52l49 89c32 -36 69 -54 108 -54c38 0 60 18 60 49s-22 47 -61 47h-72v61l94 92h-157v85h295v-67zM756 171v89h113v-89h58v-84h-58v-87h-113v87
h-207v79l134 251h117l-127 -246h83z" />
    <glyph glyph-name="questiondown" unicode="&#xbf;" horiz-adv-x="472" 
d="M246 380c-49 0 -84 34 -84 83c0 50 35 84 84 84c48 0 83 -34 83 -84c0 -49 -35 -83 -83 -83zM336 64l133 -1c-2 -143 -87 -227 -228 -227c-133 0 -216 62 -216 174c0 152 154 170 154 290h129c0 -155 -124 -163 -124 -263c0 -44 27 -64 73 -64c50 0 77 29 79 91z" />
    <glyph glyph-name="Agrave" unicode="&#xc0;" horiz-adv-x="770" 
d="M341 761l-130 113l156 55l106 -168h-132zM535 129h-306l-51 -129h-183l302 700h183l295 -700h-190zM483 264l-100 259l-102 -259h202z" />
    <glyph glyph-name="Aacute" unicode="&#xc1;" horiz-adv-x="770" 
d="M431 761h-132l106 168l156 -55zM535 129h-306l-51 -129h-183l302 700h183l295 -700h-190zM483 264l-100 259l-102 -259h202z" />
    <glyph glyph-name="Acircumflex" unicode="&#xc2;" horiz-adv-x="770" 
d="M327 771h-124l113 151h138l113 -151h-124l-58 85zM535 129h-306l-51 -129h-183l302 700h183l295 -700h-190zM483 264l-100 259l-102 -259h202z" />
    <glyph glyph-name="Atilde" unicode="&#xc3;" horiz-adv-x="770" 
d="M343 825c-20 0 -30 -14 -30 -43h-106c0 105 35 156 105 156c59 0 87 -47 115 -47c21 0 31 14 31 42h105c0 -105 -34 -155 -104 -155c-61 0 -87 47 -116 47zM535 129h-306l-51 -129h-183l302 700h183l295 -700h-190zM483 264l-100 259l-102 -259h202z" />
    <glyph glyph-name="Adieresis" unicode="&#xc4;" horiz-adv-x="770" 
d="M289 775c-45 0 -78 32 -78 77c0 46 33 78 78 78s78 -32 78 -78c0 -45 -33 -77 -78 -77zM482 775c-45 0 -78 32 -78 77c0 46 33 78 78 78s78 -32 78 -78c0 -45 -33 -77 -78 -77zM535 129h-306l-51 -129h-183l302 700h183l295 -700h-190zM483 264l-100 259l-102 -259h202z
" />
    <glyph glyph-name="Aring" unicode="&#xc5;" horiz-adv-x="770" 
d="M535 129h-306l-51 -129h-183l295 685c-19 22 -30 51 -30 83c0 70 57 127 128 127c72 0 129 -57 129 -127c0 -32 -11 -61 -31 -83l289 -685h-190zM388 822c-30 0 -54 -24 -54 -54s24 -54 54 -54c31 0 55 24 55 54s-24 54 -55 54zM483 264l-100 259l-102 -259h202z" />
    <glyph glyph-name="AE" unicode="&#xc6;" horiz-adv-x="1102" 
d="M1057 140v-140h-559v148h-240l-78 -148h-185l398 700h105v1h548v-141h-371v-139h335v-139h-335v-142h382zM498 276v288h-20l-152 -288h172z" />
    <glyph glyph-name="Ccedilla" unicode="&#xc7;" horiz-adv-x="692" 
d="M577 230l104 -110c-63 -65 -152 -111 -240 -124l-24 -47c41 -11 68 -40 68 -81c0 -63 -52 -103 -125 -103c-31 0 -67 12 -95 31l32 71c13 -12 32 -20 49 -20c26 0 42 17 42 37s-16 36 -46 36c-10 0 -24 -2 -36 -4l38 79c-186 21 -320 168 -320 357c0 202 161 354 374 354
c104 0 212 -46 282 -118l-103 -122c-46 56 -114 91 -176 91c-111 0 -195 -88 -195 -203c0 -117 84 -206 195 -206c59 0 127 32 176 82z" />
    <glyph glyph-name="Egrave" unicode="&#xc8;" horiz-adv-x="674" 
d="M434 761h-132l-130 113l156 55zM618 560h-370v-139h334v-140h-334v-141h381v-140h-559v700h548v-140z" />
    <glyph glyph-name="Eacute" unicode="&#xc9;" horiz-adv-x="674" 
d="M522 874l-130 -113h-132l106 168zM618 560h-370v-139h334v-140h-334v-141h381v-140h-559v700h548v-140z" />
    <glyph glyph-name="Ecircumflex" unicode="&#xca;" horiz-adv-x="674" 
d="M528 771h-124l-58 85l-58 -85h-124l113 151h138zM618 560h-370v-139h334v-140h-334v-141h381v-140h-559v700h548v-140z" />
    <glyph glyph-name="Edieresis" unicode="&#xcb;" horiz-adv-x="674" 
d="M250 930c45 0 78 -32 78 -78c0 -45 -33 -77 -78 -77s-78 32 -78 77c0 46 33 78 78 78zM443 930c45 0 78 -32 78 -78c0 -45 -33 -77 -78 -77s-78 32 -78 77c0 46 33 78 78 78zM618 560h-370v-139h334v-140h-334v-141h381v-140h-559v700h548v-140z" />
    <glyph glyph-name="Igrave" unicode="&#xcc;" horiz-adv-x="318" 
d="M247 761h-132l-130 113l156 55zM248 0h-178v700h178v-700z" />
    <glyph glyph-name="Iacute" unicode="&#xcd;" horiz-adv-x="318" 
d="M334 874l-130 -113h-132l106 168zM248 0h-178v700h178v-700z" />
    <glyph glyph-name="Icircumflex" unicode="&#xce;" horiz-adv-x="318" 
d="M341 771h-124l-58 85l-58 -85h-124l113 151h138zM248 0h-178v700h178v-700z" />
    <glyph glyph-name="Idieresis" unicode="&#xcf;" horiz-adv-x="318" 
d="M63 930c45 0 78 -32 78 -78c0 -45 -33 -77 -78 -77s-78 32 -78 77c0 46 33 78 78 78zM256 930c45 0 78 -32 78 -78c0 -45 -33 -77 -78 -77s-78 32 -78 77c0 46 33 78 78 78zM248 0h-178v700h178v-700z" />
    <glyph glyph-name="Eth" unicode="&#xd0;" horiz-adv-x="799" 
d="M102 700h301c220 0 372 -142 372 -350c0 -207 -154 -350 -379 -350h-294v304h-102v94h102v302zM279 142h128c109 0 187 84 187 207c0 124 -82 209 -195 209h-120v-160h159v-94h-159v-162z" />
    <glyph glyph-name="Ntilde" unicode="&#xd1;" horiz-adv-x="786" 
d="M320 938c59 0 87 -47 115 -47c21 0 31 14 31 42h105c0 -105 -34 -155 -104 -155c-61 0 -87 47 -116 47c-20 0 -30 -14 -30 -43h-106c0 105 35 156 105 156zM716 0h-157l-322 431v-431h-167v700h157l323 -432v432h166v-700z" />
    <glyph glyph-name="Ograve" unicode="&#xd2;" horiz-adv-x="805" 
d="M483 761h-132l-130 113l156 55zM402 706c217 0 379 -152 379 -355c0 -204 -162 -359 -379 -359c-216 0 -378 154 -378 359c0 204 162 355 378 355zM404 557c-108 0 -198 -89 -198 -207s91 -209 198 -209c108 0 194 91 194 209s-86 207 -194 207z" />
    <glyph glyph-name="Oacute" unicode="&#xd3;" horiz-adv-x="805" 
d="M570 874l-130 -113h-132l106 168zM402 706c217 0 379 -152 379 -355c0 -204 -162 -359 -379 -359c-216 0 -378 154 -378 359c0 204 162 355 378 355zM404 557c-108 0 -198 -89 -198 -207s91 -209 198 -209c108 0 194 91 194 209s-86 207 -194 207z" />
    <glyph glyph-name="Ocircumflex" unicode="&#xd4;" horiz-adv-x="805" 
d="M577 771h-124l-58 85l-58 -85h-124l113 151h138zM402 706c217 0 379 -152 379 -355c0 -204 -162 -359 -379 -359c-216 0 -378 154 -378 359c0 204 162 355 378 355zM404 557c-108 0 -198 -89 -198 -207s91 -209 198 -209c108 0 194 91 194 209s-86 207 -194 207z" />
    <glyph glyph-name="Otilde" unicode="&#xd5;" horiz-adv-x="805" 
d="M322 938c59 0 87 -47 115 -47c21 0 31 14 31 42h105c0 -105 -34 -155 -104 -155c-61 0 -87 47 -116 47c-20 0 -30 -14 -30 -43h-106c0 105 35 156 105 156zM402 706c217 0 379 -152 379 -355c0 -204 -162 -359 -379 -359c-216 0 -378 154 -378 359c0 204 162 355 378 355
zM404 557c-108 0 -198 -89 -198 -207s91 -209 198 -209c108 0 194 91 194 209s-86 207 -194 207z" />
    <glyph glyph-name="Odieresis" unicode="&#xd6;" horiz-adv-x="805" 
d="M299 930c45 0 78 -32 78 -78c0 -45 -33 -77 -78 -77s-78 32 -78 77c0 46 33 78 78 78zM492 930c45 0 78 -32 78 -78c0 -45 -33 -77 -78 -77s-78 32 -78 77c0 46 33 78 78 78zM402 706c217 0 379 -152 379 -355c0 -204 -162 -359 -379 -359c-216 0 -378 154 -378 359
c0 204 162 355 378 355zM404 557c-108 0 -198 -89 -198 -207s91 -209 198 -209c108 0 194 91 194 209s-86 207 -194 207z" />
    <glyph glyph-name="multiply" unicode="&#xd7;" horiz-adv-x="510" 
d="M332 327l118 -119l-77 -77l-118 119l-119 -119l-77 77l119 119l-119 118l77 77l119 -118l118 118l77 -77z" />
    <glyph glyph-name="Oslash" unicode="&#xd8;" horiz-adv-x="805" 
d="M596 809l-45 -129c138 -52 230 -176 230 -329c0 -204 -162 -359 -379 -359c-31 0 -61 3 -89 9l-40 -114h-100l51 145c-121 58 -200 176 -200 319c0 204 162 355 378 355c19 0 38 -1 57 -4l37 107h100zM206 350c0 -66 29 -124 73 -162l129 369h-4
c-108 0 -198 -89 -198 -207zM404 141c108 0 194 91 194 209c0 80 -39 147 -99 182l-135 -387c13 -2 27 -4 40 -4z" />
    <glyph glyph-name="Ugrave" unicode="&#xd9;" horiz-adv-x="758" 
d="M467 761h-132l-130 113l156 55zM700 700v-406c0 -185 -123 -302 -319 -302c-197 0 -323 117 -323 302v406h178v-406c0 -95 61 -153 146 -153c84 0 141 58 141 153v406h177z" />
    <glyph glyph-name="Uacute" unicode="&#xda;" horiz-adv-x="758" 
d="M555 874l-130 -113h-132l106 168zM700 700v-406c0 -185 -123 -302 -319 -302c-197 0 -323 117 -323 302v406h178v-406c0 -95 61 -153 146 -153c84 0 141 58 141 153v406h177z" />
    <glyph glyph-name="Ucircumflex" unicode="&#xdb;" horiz-adv-x="758" 
d="M562 771h-124l-58 85l-58 -85h-124l113 151h138zM700 700v-406c0 -185 -123 -302 -319 -302c-197 0 -323 117 -323 302v406h178v-406c0 -95 61 -153 146 -153c84 0 141 58 141 153v406h177z" />
    <glyph glyph-name="Udieresis" unicode="&#xdc;" horiz-adv-x="758" 
d="M284 930c45 0 78 -32 78 -78c0 -45 -33 -77 -78 -77s-78 32 -78 77c0 46 33 78 78 78zM477 930c45 0 78 -32 78 -78c0 -45 -33 -77 -78 -77s-78 32 -78 77c0 46 33 78 78 78zM700 700v-406c0 -185 -123 -302 -319 -302c-197 0 -323 117 -323 302v406h178v-406
c0 -95 61 -153 146 -153c84 0 141 58 141 153v406h177z" />
    <glyph glyph-name="Yacute" unicode="&#xdd;" horiz-adv-x="680" 
d="M385 761h-132l106 168l156 -55zM431 226v-226h-177v221l-259 479h178l169 -305l165 305h178z" />
    <glyph glyph-name="Thorn" unicode="&#xde;" horiz-adv-x="689" 
d="M248 608h122c185 0 296 -91 296 -241c0 -158 -111 -255 -296 -255h-122v-112h-178v700h178v-92zM248 248h115c78 0 121 41 121 114c0 70 -43 110 -121 110h-115v-224z" />
    <glyph glyph-name="germandbls" unicode="&#xdf;" horiz-adv-x="662" 
d="M329 750c155 0 258 -79 258 -200c0 -70 -38 -135 -96 -167c81 -22 138 -83 138 -169c0 -128 -109 -214 -278 -214h-49v123h41c76 0 119 35 119 92c0 59 -48 90 -131 90h-18v122c69 0 107 35 107 98c0 61 -33 95 -90 95c-64 0 -100 -42 -100 -116v-504h-172v492
c0 157 104 258 271 258z" />
    <glyph glyph-name="agrave" unicode="&#xe0;" horiz-adv-x="600" 
d="M255 600l-130 113l156 55l106 -168h-132zM311 547c148 0 234 -73 235 -195v-352h-169v62c-35 -46 -92 -70 -165 -70c-115 0 -185 70 -185 169c0 102 73 162 207 163h142v8c0 53 -35 85 -105 85c-45 0 -104 -16 -161 -45l-49 114c84 39 160 61 250 61zM265 109
c54 0 100 30 111 74v48h-109c-52 0 -78 -18 -78 -58c0 -39 28 -64 76 -64z" />
    <glyph glyph-name="aacute" unicode="&#xe1;" horiz-adv-x="600" 
d="M345 600h-132l106 168l156 -55zM311 547c148 0 234 -73 235 -195v-352h-169v62c-35 -46 -92 -70 -165 -70c-115 0 -185 70 -185 169c0 102 73 162 207 163h142v8c0 53 -35 85 -105 85c-45 0 -104 -16 -161 -45l-49 114c84 39 160 61 250 61zM265 109c54 0 100 30 111 74
v48h-109c-52 0 -78 -18 -78 -58c0 -39 28 -64 76 -64z" />
    <glyph glyph-name="acircumflex" unicode="&#xe2;" horiz-adv-x="600" 
d="M241 610h-124l113 151h138l113 -151h-124l-58 85zM311 547c148 0 234 -73 235 -195v-352h-169v62c-35 -46 -92 -70 -165 -70c-115 0 -185 70 -185 169c0 102 73 162 207 163h142v8c0 53 -35 85 -105 85c-45 0 -104 -16 -161 -45l-49 114c84 39 160 61 250 61zM265 109
c54 0 100 30 111 74v48h-109c-52 0 -78 -18 -78 -58c0 -39 28 -64 76 -64z" />
    <glyph glyph-name="atilde" unicode="&#xe3;" horiz-adv-x="600" 
d="M257 664c-20 0 -30 -14 -30 -43h-106c0 105 35 156 105 156c59 0 87 -47 115 -47c21 0 31 14 31 42h105c0 -105 -34 -155 -104 -155c-61 0 -87 47 -116 47zM311 547c148 0 234 -73 235 -195v-352h-169v62c-35 -46 -92 -70 -165 -70c-115 0 -185 70 -185 169
c0 102 73 162 207 163h142v8c0 53 -35 85 -105 85c-45 0 -104 -16 -161 -45l-49 114c84 39 160 61 250 61zM265 109c54 0 100 30 111 74v48h-109c-52 0 -78 -18 -78 -58c0 -39 28 -64 76 -64z" />
    <glyph glyph-name="adieresis" unicode="&#xe4;" horiz-adv-x="600" 
d="M203 614c-45 0 -78 32 -78 77c0 46 33 78 78 78s78 -32 78 -78c0 -45 -33 -77 -78 -77zM396 614c-45 0 -78 32 -78 77c0 46 33 78 78 78s78 -32 78 -78c0 -45 -33 -77 -78 -77zM311 547c148 0 234 -73 235 -195v-352h-169v62c-35 -46 -92 -70 -165 -70
c-115 0 -185 70 -185 169c0 102 73 162 207 163h142v8c0 53 -35 85 -105 85c-45 0 -104 -16 -161 -45l-49 114c84 39 160 61 250 61zM265 109c54 0 100 30 111 74v48h-109c-52 0 -78 -18 -78 -58c0 -39 28 -64 76 -64z" />
    <glyph glyph-name="aring" unicode="&#xe5;" horiz-adv-x="600" 
d="M299 574c-67 0 -121 54 -121 120s54 120 121 120s121 -54 121 -120s-54 -120 -121 -120zM299 746c-29 0 -53 -24 -53 -52c0 -29 24 -52 53 -52s53 23 53 52c0 28 -24 52 -53 52zM311 547c148 0 234 -73 235 -195v-352h-169v62c-35 -46 -92 -70 -165 -70
c-115 0 -185 70 -185 169c0 102 73 162 207 163h142v8c0 53 -35 85 -105 85c-45 0 -104 -16 -161 -45l-49 114c84 39 160 61 250 61zM265 109c54 0 100 30 111 74v48h-109c-52 0 -78 -18 -78 -58c0 -39 28 -64 76 -64z" />
    <glyph glyph-name="ae" unicode="&#xe6;" horiz-adv-x="966" 
d="M663 545c179 0 288 -124 279 -313h-388c14 -69 62 -109 128 -109c48 0 94 19 130 55l91 -89c-56 -61 -136 -95 -236 -95c-104 0 -180 42 -223 113c-42 -74 -118 -115 -221 -115c-122 0 -196 67 -196 167c0 101 75 157 208 158h144v15c0 53 -37 85 -106 85
c-49 0 -111 -16 -172 -45l-40 116c85 37 172 59 251 59c80 0 141 -21 182 -59c43 37 101 57 169 57zM552 315h217c0 66 -42 114 -105 114c-60 0 -101 -47 -112 -114zM266 104c47 0 87 21 113 69v62h-109c-51 0 -81 -22 -81 -62c0 -42 30 -69 77 -69zM420 158v3l-5 1z" />
    <glyph glyph-name="ccedilla" unicode="&#xe7;" horiz-adv-x="562" 
d="M421 193l126 -74c-37 -66 -103 -109 -190 -121l-25 -49c41 -11 68 -40 68 -81c0 -63 -52 -103 -125 -103c-31 0 -67 12 -95 31l32 71c13 -12 32 -20 49 -20c26 0 42 17 42 37s-16 36 -46 36c-10 0 -24 -2 -36 -4l39 81c-143 17 -236 121 -236 271c0 166 113 277 280 277
c107 0 193 -44 240 -121l-124 -75c-25 35 -62 56 -109 56c-67 0 -113 -55 -113 -136c0 -83 46 -137 113 -137c49 0 87 20 110 61z" />
    <glyph glyph-name="egrave" unicode="&#xe8;" horiz-adv-x="602" 
d="M257 600l-130 113l156 55l106 -168h-132zM305 545c190 0 284 -125 272 -322h-379c17 -64 63 -100 127 -100c47 0 93 19 129 55l91 -89c-55 -60 -136 -95 -235 -95c-176 0 -286 110 -286 274c0 167 114 277 281 277zM195 316h216c0 66 -42 109 -104 109
c-60 0 -101 -44 -112 -109z" />
    <glyph glyph-name="eacute" unicode="&#xe9;" horiz-adv-x="602" 
d="M346 600h-132l106 168l156 -55zM305 545c190 0 284 -125 272 -322h-379c17 -64 63 -100 127 -100c47 0 93 19 129 55l91 -89c-55 -60 -136 -95 -235 -95c-176 0 -286 110 -286 274c0 167 114 277 281 277zM195 316h216c0 66 -42 109 -104 109c-60 0 -101 -44 -112 -109z
" />
    <glyph glyph-name="ecircumflex" unicode="&#xea;" horiz-adv-x="602" 
d="M243 609h-124l113 151h138l113 -151h-124l-58 85zM305 545c190 0 284 -125 272 -322h-379c17 -64 63 -100 127 -100c47 0 93 19 129 55l91 -89c-55 -60 -136 -95 -235 -95c-176 0 -286 110 -286 274c0 167 114 277 281 277zM195 316h216c0 66 -42 109 -104 109
c-60 0 -101 -44 -112 -109z" />
    <glyph glyph-name="edieresis" unicode="&#xeb;" horiz-adv-x="602" 
d="M205 614c-45 0 -78 32 -78 77c0 46 33 78 78 78s78 -32 78 -78c0 -45 -33 -77 -78 -77zM398 614c-45 0 -78 32 -78 77c0 46 33 78 78 78s78 -32 78 -78c0 -45 -33 -77 -78 -77zM305 545c190 0 284 -125 272 -322h-379c17 -64 63 -100 127 -100c47 0 93 19 129 55l91 -89
c-55 -60 -136 -95 -235 -95c-176 0 -286 110 -286 274c0 167 114 277 281 277zM195 316h216c0 66 -42 109 -104 109c-60 0 -101 -44 -112 -109z" />
    <glyph glyph-name="igrave" unicode="&#xec;" horiz-adv-x="311" 
d="M244 600h-132l-130 113l156 55zM241 0h-172v539h172v-539z" />
    <glyph glyph-name="iacute" unicode="&#xed;" horiz-adv-x="311" 
d="M331 713l-130 -113h-132l106 168zM241 0h-172v539h172v-539z" />
    <glyph glyph-name="icircumflex" unicode="&#xee;" horiz-adv-x="311" 
d="M338 610h-124l-58 85l-58 -85h-124l113 151h138zM241 0h-172v539h172v-539z" />
    <glyph glyph-name="idieresis" unicode="&#xef;" horiz-adv-x="311" 
d="M60 769c45 0 78 -32 78 -78c0 -45 -33 -77 -78 -77s-78 32 -78 77c0 46 33 78 78 78zM253 769c45 0 78 -32 78 -78c0 -45 -33 -77 -78 -77s-78 32 -78 77c0 46 33 78 78 78zM241 0h-172v539h172v-539z" />
    <glyph glyph-name="eth" unicode="&#xf0;" horiz-adv-x="604" 
d="M550 625l-98 -33c81 -88 128 -196 128 -308c0 -177 -117 -292 -297 -292c-158 0 -261 92 -261 234c0 133 89 219 227 219c66 0 129 -23 161 -60c-18 53 -56 108 -107 157l-163 -54l-26 80l113 38c-38 27 -80 52 -125 73l116 70c60 -24 115 -55 162 -92l143 48zM290 135
c65 0 106 38 106 97s-41 98 -106 98c-63 0 -103 -37 -103 -96c0 -60 41 -99 103 -99z" />
    <glyph glyph-name="ntilde" unicode="&#xf1;" horiz-adv-x="673" 
d="M311 664c-20 0 -30 -14 -30 -43h-106c0 105 35 156 105 156c59 0 87 -47 115 -47c21 0 31 14 31 42h105c0 -105 -34 -155 -104 -155c-61 0 -87 47 -116 47zM422 547c119 0 197 -81 197 -207v-340h-172v292c0 63 -37 102 -95 102c-63 0 -103 -45 -110 -109v-285h-173v539
h173v-88c38 63 100 95 180 96z" />
    <glyph glyph-name="ograve" unicode="&#xf2;" horiz-adv-x="637" 
d="M407 600h-132l-130 113l156 55zM319 545c176 0 294 -109 294 -275s-118 -276 -294 -276c-177 0 -295 110 -295 276s118 275 295 275zM319 408c-72 0 -121 -57 -121 -140c0 -84 49 -140 121 -140c71 0 120 56 120 140c0 83 -49 140 -120 140z" />
    <glyph glyph-name="oacute" unicode="&#xf3;" horiz-adv-x="637" 
d="M494 713l-130 -113h-132l106 168zM319 545c176 0 294 -109 294 -275s-118 -276 -294 -276c-177 0 -295 110 -295 276s118 275 295 275zM319 408c-72 0 -121 -57 -121 -140c0 -84 49 -140 121 -140c71 0 120 56 120 140c0 83 -49 140 -120 140z" />
    <glyph glyph-name="ocircumflex" unicode="&#xf4;" horiz-adv-x="637" 
d="M501 609h-124l-58 85l-58 -85h-124l113 151h138zM319 545c176 0 294 -109 294 -275s-118 -276 -294 -276c-177 0 -295 110 -295 276s118 275 295 275zM319 408c-72 0 -121 -57 -121 -140c0 -84 49 -140 121 -140c71 0 120 56 120 140c0 83 -49 140 -120 140z" />
    <glyph glyph-name="otilde" unicode="&#xf5;" horiz-adv-x="637" 
d="M245 777c59 0 87 -47 115 -47c21 0 31 14 31 42h105c0 -105 -34 -155 -104 -155c-61 0 -87 47 -116 47c-20 0 -30 -14 -30 -43h-106c0 105 35 156 105 156zM319 545c176 0 294 -109 294 -275s-118 -276 -294 -276c-177 0 -295 110 -295 276s118 275 295 275zM319 408
c-72 0 -121 -57 -121 -140c0 -84 49 -140 121 -140c71 0 120 56 120 140c0 83 -49 140 -120 140z" />
    <glyph glyph-name="odieresis" unicode="&#xf6;" horiz-adv-x="637" 
d="M223 769c45 0 78 -32 78 -78c0 -45 -33 -77 -78 -77s-78 32 -78 77c0 46 33 78 78 78zM416 769c45 0 78 -32 78 -78c0 -45 -33 -77 -78 -77s-78 32 -78 77c0 46 33 78 78 78zM319 545c176 0 294 -109 294 -275s-118 -276 -294 -276c-177 0 -295 110 -295 276
s118 275 295 275zM319 408c-72 0 -121 -57 -121 -140c0 -84 49 -140 121 -140c71 0 120 56 120 140c0 83 -49 140 -120 140z" />
    <glyph glyph-name="divide" unicode="&#xf7;" horiz-adv-x="510" 
d="M247 584c46 0 78 -32 78 -78c0 -45 -32 -77 -78 -77c-45 0 -78 32 -78 77c0 46 33 78 78 78zM477 272h-444v109h444v-109zM247 227c46 0 78 -33 78 -78s-32 -78 -78 -78c-45 0 -78 33 -78 78s33 78 78 78z" />
    <glyph glyph-name="oslash" unicode="&#xf8;" horiz-adv-x="637" 
d="M485 671l-47 -145c108 -38 175 -131 175 -256c0 -166 -118 -276 -294 -276c-18 0 -36 1 -53 3l-45 -139h-71l50 155c-109 38 -176 132 -176 257c0 166 118 275 295 275c18 0 36 -1 53 -3l42 129h71zM187 268c0 -57 20 -103 54 -129l92 282l-14 1
c-79 0 -132 -62 -132 -154zM304 115l15 -1c78 0 131 61 131 154c0 57 -21 102 -54 129z" />
    <glyph glyph-name="ugrave" unicode="&#xf9;" horiz-adv-x="663" 
d="M283 600l-130 113l156 55l106 -168h-132zM594 539v-539h-173v89c-37 -64 -97 -96 -175 -96c-117 0 -193 80 -193 206v340h173v-291c0 -64 35 -103 90 -103c66 1 105 55 105 128v266h173z" />
    <glyph glyph-name="uacute" unicode="&#xfa;" horiz-adv-x="663" 
d="M372 600h-132l106 168l156 -55zM594 539v-539h-173v89c-37 -64 -97 -96 -175 -96c-117 0 -193 80 -193 206v340h173v-291c0 -64 35 -103 90 -103c66 1 105 55 105 128v266h173z" />
    <glyph glyph-name="ucircumflex" unicode="&#xfb;" horiz-adv-x="663" 
d="M269 610h-124l113 151h138l113 -151h-124l-58 85zM594 539v-539h-173v89c-37 -64 -97 -96 -175 -96c-117 0 -193 80 -193 206v340h173v-291c0 -64 35 -103 90 -103c66 1 105 55 105 128v266h173z" />
    <glyph glyph-name="udieresis" unicode="&#xfc;" horiz-adv-x="663" 
d="M231 614c-45 0 -78 32 -78 77c0 46 33 78 78 78s78 -32 78 -78c0 -45 -33 -77 -78 -77zM424 614c-45 0 -78 32 -78 77c0 46 33 78 78 78s78 -32 78 -78c0 -45 -33 -77 -78 -77zM594 539v-539h-173v89c-37 -64 -97 -96 -175 -96c-117 0 -193 80 -193 206v340h173v-291
c0 -64 35 -103 90 -103c66 1 105 55 105 128v266h173z" />
    <glyph glyph-name="yacute" unicode="&#xfd;" horiz-adv-x="580" 
d="M466 713l-130 -113h-132l106 168zM587 539l-233 -595c-40 -98 -108 -146 -208 -146c-60 0 -109 18 -157 55l72 118c25 -20 46 -29 71 -29c31 0 53 14 67 43l13 27l-224 527h178l132 -358l117 358h172z" />
    <glyph glyph-name="thorn" unicode="&#xfe;" horiz-adv-x="685" 
d="M408 545c152 0 253 -111 253 -278c0 -164 -98 -273 -249 -273c-70 0 -127 28 -165 78v-266h-173v936h173v-274c38 49 93 77 161 77zM366 131c72 0 121 58 121 141c0 82 -49 140 -121 140c-70 0 -119 -58 -119 -140c0 -84 49 -141 119 -141z" />
    <glyph glyph-name="ydieresis" unicode="&#xff;" horiz-adv-x="580" 
d="M195 769c45 0 78 -32 78 -78c0 -45 -33 -77 -78 -77s-78 32 -78 77c0 46 33 78 78 78zM388 769c45 0 78 -32 78 -78c0 -45 -33 -77 -78 -77s-78 32 -78 77c0 46 33 78 78 78zM587 539l-233 -595c-40 -98 -108 -146 -208 -146c-60 0 -109 18 -157 55l72 118
c25 -20 46 -29 71 -29c31 0 53 14 67 43l13 27l-224 527h178l132 -358l117 358h172z" />
    <glyph glyph-name="Amacron" unicode="&#x100;" horiz-adv-x="770" 
d="M524 793h-278v116h278v-116zM535 129h-306l-51 -129h-183l302 700h183l295 -700h-190zM483 264l-100 259l-102 -259h202z" />
    <glyph glyph-name="amacron" unicode="&#x101;" horiz-adv-x="600" 
d="M438 632h-278v116h278v-116zM311 547c148 0 234 -73 235 -195v-352h-169v62c-35 -46 -92 -70 -165 -70c-115 0 -185 70 -185 169c0 102 73 162 207 163h142v8c0 53 -35 85 -105 85c-45 0 -104 -16 -161 -45l-49 114c84 39 160 61 250 61zM265 109c54 0 100 30 111 74v48
h-109c-52 0 -78 -18 -78 -58c0 -39 28 -64 76 -64z" />
    <glyph glyph-name="Abreve" unicode="&#x102;" horiz-adv-x="770" 
d="M385 762c-94 0 -159 62 -164 158h108c3 -34 25 -58 56 -58s53 24 56 58h108c-5 -96 -70 -158 -164 -158zM535 129h-306l-51 -129h-183l302 700h183l295 -700h-190zM483 264l-100 259l-102 -259h202z" />
    <glyph glyph-name="abreve" unicode="&#x103;" horiz-adv-x="600" 
d="M299 601c-94 0 -159 62 -164 158h108c3 -34 25 -58 56 -58s53 24 56 58h108c-5 -96 -70 -158 -164 -158zM311 547c148 0 234 -73 235 -195v-352h-169v62c-35 -46 -92 -70 -165 -70c-115 0 -185 70 -185 169c0 102 73 162 207 163h142v8c0 53 -35 85 -105 85
c-45 0 -104 -16 -161 -45l-49 114c84 39 160 61 250 61zM265 109c54 0 100 30 111 74v48h-109c-52 0 -78 -18 -78 -58c0 -39 28 -64 76 -64z" />
    <glyph glyph-name="Aogonek" unicode="&#x104;" horiz-adv-x="770" 
d="M775 0h-51c-28 -41 -43 -73 -43 -92c0 -16 8 -24 21 -24c16 0 30 12 43 31l44 -51c-25 -43 -64 -67 -108 -67c-40 0 -88 21 -88 83c0 39 20 78 48 120h-55l-51 129h-305l-52 -129h-183l302 701h183zM281 264h204l-101 259z" />
    <glyph glyph-name="aogonek" unicode="&#x105;" horiz-adv-x="605" 
d="M313 547c149 0 235 -73 236 -195v-352h-41c-28 -41 -44 -73 -44 -92c0 -16 9 -24 22 -24c15 0 30 12 43 31l44 -51c-25 -43 -65 -67 -108 -67c-40 0 -88 21 -88 83c0 39 19 79 48 120h-46v62c-35 -46 -92 -70 -166 -70c-116 0 -186 70 -186 169c0 102 74 162 208 163h144
v9c-2 53 -37 84 -107 84c-45 0 -104 -16 -162 -45l-49 114c84 39 161 61 252 61zM379 231h-111c-53 0 -79 -18 -79 -58c0 -39 29 -64 77 -64c53 0 102 32 113 72v50z" />
    <glyph glyph-name="Cacute" unicode="&#x106;" horiz-adv-x="692" 
d="M559 874l-130 -113h-132l106 168zM398 706c104 0 212 -46 282 -118l-103 -122c-46 56 -114 91 -176 91c-111 0 -195 -88 -195 -203c0 -117 84 -206 195 -206c59 0 127 32 176 82l104 -110c-75 -77 -186 -128 -289 -128c-211 0 -368 155 -368 360c0 202 161 354 374 354z
" />
    <glyph glyph-name="cacute" unicode="&#x107;" horiz-adv-x="562" 
d="M468 713l-130 -113h-132l106 168zM304 545c107 0 193 -44 240 -121l-124 -75c-25 35 -62 56 -109 56c-67 0 -113 -55 -113 -136c0 -83 46 -137 113 -137c49 0 87 20 110 61l126 -74c-44 -79 -131 -125 -245 -125c-166 0 -278 110 -278 274c0 166 113 277 280 277z" />
    <glyph glyph-name="Ccaron" unicode="&#x10c;" horiz-adv-x="692" 
d="M183 922h135l61 -92l61 92h135l-121 -164h-150zM398 706c104 0 212 -46 282 -118l-103 -122c-46 56 -114 91 -176 91c-111 0 -195 -88 -195 -203c0 -117 84 -206 195 -206c59 0 127 32 176 82l104 -110c-75 -77 -186 -128 -289 -128c-211 0 -368 155 -368 360
c0 202 161 354 374 354z" />
    <glyph glyph-name="ccaron" unicode="&#x10d;" horiz-adv-x="562" 
d="M93 760h135l61 -92l61 92h135l-121 -164h-150zM304 545c107 0 193 -44 240 -121l-124 -75c-25 35 -62 56 -109 56c-67 0 -113 -55 -113 -136c0 -83 46 -137 113 -137c49 0 87 20 110 61l126 -74c-44 -79 -131 -125 -245 -125c-166 0 -278 110 -278 274
c0 166 113 277 280 277z" />
    <glyph glyph-name="Dcaron" unicode="&#x10e;" horiz-adv-x="767" 
d="M158 922h135l61 -92l61 92h135l-121 -164h-150zM70 700h301c220 0 372 -142 372 -350c0 -207 -154 -350 -379 -350h-294v700zM248 558v-416h127c109 0 187 84 187 207c0 124 -82 209 -195 209h-119z" />
    <glyph glyph-name="dcaron" unicode="&#x10f;" horiz-adv-x="786" 
d="M439 742h173v-742h-173v71c-38 -50 -93 -78 -162 -78c-152 0 -252 112 -252 279c0 165 99 274 248 274c71 0 128 -28 166 -78v274zM745 677c44 0 82 -29 82 -82c0 -25 -9 -46 -22 -66l-73 -106h-82l45 107c-23 15 -33 39 -33 65c0 48 35 82 83 82zM319 127
c72 0 120 58 120 141s-48 140 -120 140s-120 -57 -121 -140c1 -83 49 -141 121 -141z" />
    <glyph glyph-name="Dcroat" unicode="&#x110;" horiz-adv-x="767" 
d="M497 793h-278v116h278v-116zM70 700h301c220 0 372 -142 372 -350c0 -207 -154 -350 -379 -350h-294v700zM248 558v-416h127c109 0 187 84 187 207c0 124 -82 209 -195 209h-119z" />
    <glyph glyph-name="dcroat" unicode="&#x111;" horiz-adv-x="686" 
d="M677 595h-65v-595h-173v71c-38 -50 -93 -78 -162 -78c-152 0 -252 112 -252 279c0 165 99 274 248 274c71 0 128 -28 166 -78v127h-85v89h85v58h173v-58h65v-89zM319 127c72 0 120 58 120 141s-48 140 -120 140s-120 -57 -121 -140c1 -83 49 -141 121 -141z" />
    <glyph glyph-name="Emacron" unicode="&#x112;" horiz-adv-x="674" 
d="M485 793h-278v116h278v-116zM618 560h-370v-139h334v-140h-334v-141h381v-140h-559v700h548v-140z" />
    <glyph glyph-name="emacron" unicode="&#x113;" horiz-adv-x="602" 
d="M440 632h-278v116h278v-116zM305 545c190 0 284 -125 272 -322h-379c17 -64 63 -100 127 -100c47 0 93 19 129 55l91 -89c-55 -60 -136 -95 -235 -95c-176 0 -286 110 -286 274c0 167 114 277 281 277zM195 316h216c0 66 -42 109 -104 109c-60 0 -101 -44 -112 -109z" />
    <glyph glyph-name="Edotaccent" unicode="&#x116;" horiz-adv-x="674" 
d="M346 946c53 0 91 -38 91 -91c0 -54 -38 -92 -91 -92s-91 38 -91 92c0 53 38 91 91 91zM618 560h-370v-139h334v-140h-334v-141h381v-140h-559v700h548v-140z" />
    <glyph glyph-name="edotaccent" unicode="&#x117;" horiz-adv-x="602" 
d="M301 602c-53 0 -91 38 -91 92c0 53 38 91 91 91s91 -38 91 -91c0 -54 -38 -92 -91 -92zM305 545c190 0 284 -125 272 -322h-379c17 -64 63 -100 127 -100c47 0 93 19 129 55l91 -89c-55 -60 -136 -95 -235 -95c-176 0 -286 110 -286 274c0 167 114 277 281 277zM195 316
h216c0 66 -42 109 -104 109c-60 0 -101 -44 -112 -109z" />
    <glyph glyph-name="Eogonek" unicode="&#x118;" horiz-adv-x="678" 
d="M623 564h-375v-143h339v-136h-339v-149h385v-136h-71c-29 -42 -43 -73 -43 -92c0 -16 9 -24 21 -24c16 0 30 12 43 31l45 -51c-26 -43 -65 -67 -109 -67c-40 0 -87 21 -87 83c0 39 18 77 47 120h-409v700h553v-136z" />
    <glyph glyph-name="eogonek" unicode="&#x119;" horiz-adv-x="602" 
d="M306 545c184 2 284 -123 271 -322h-378c17 -63 61 -101 126 -101c46 0 93 20 129 56l91 -89c-47 -54 -109 -134 -109 -180c0 -17 8 -25 21 -25c16 0 30 13 42 31l44 -51c-25 -43 -62 -67 -107 -67c-40 0 -88 21 -88 84c0 43 22 89 56 136c-31 -16 -62 -23 -96 -23
c-173 0 -283 109 -283 275c0 162 106 274 281 276zM308 425c-61 0 -104 -44 -113 -109h216c0 64 -42 109 -103 109z" />
    <glyph glyph-name="Ecaron" unicode="&#x11a;" horiz-adv-x="674" 
d="M146 922h135l61 -92l61 92h135l-121 -164h-150zM618 560h-370v-139h334v-140h-334v-141h381v-140h-559v700h548v-140z" />
    <glyph glyph-name="ecaron" unicode="&#x11b;" horiz-adv-x="602" 
d="M221 596l-121 164h135l61 -92l61 92h135l-121 -164h-150zM305 545c190 0 284 -125 272 -322h-379c17 -64 63 -100 127 -100c47 0 93 19 129 55l91 -89c-55 -60 -136 -95 -235 -95c-176 0 -286 110 -286 274c0 167 114 277 281 277zM195 316h216c0 66 -42 109 -104 109
c-60 0 -101 -44 -112 -109z" />
    <glyph glyph-name="Gbreve" unicode="&#x11e;" horiz-adv-x="743" 
d="M392 762c-94 0 -159 62 -164 158h108c3 -34 25 -58 56 -58s53 24 56 58h108c-5 -96 -70 -158 -164 -158zM535 356h154v-273c-75 -53 -193 -91 -291 -91c-213 0 -374 154 -374 358c0 203 165 356 386 356c104 0 214 -40 286 -104l-100 -121c-51 47 -122 76 -187 76
c-115 0 -203 -90 -203 -207c0 -119 89 -209 205 -209c36 0 82 13 124 34v181z" />
    <glyph glyph-name="gbreve" unicode="&#x11f;" horiz-adv-x="647" 
d="M324 601c-94 0 -159 62 -164 158h108c3 -34 25 -58 56 -58s53 24 56 58h108c-5 -96 -70 -158 -164 -158zM584 539v-490c0 -153 -118 -250 -292 -250c-94 0 -179 30 -240 71l60 117c49 -34 109 -54 167 -54c83 0 133 44 133 111v57c-35 -46 -88 -72 -155 -72
c-136 0 -232 104 -232 261c0 153 93 255 228 255c69 1 123 -25 159 -72v66h172zM300 154c67 0 112 54 112 131c0 79 -45 132 -112 132c-68 0 -114 -54 -114 -132c0 -77 46 -131 114 -131z" />
    <glyph glyph-name="Gcommaaccent" unicode="&#x122;" horiz-adv-x="743" 
d="M535 356h154v-273c-75 -53 -193 -91 -291 -91c-213 0 -374 154 -374 358c0 203 165 356 386 356c104 0 214 -40 286 -104l-100 -121c-51 47 -122 76 -187 76c-115 0 -203 -90 -203 -207c0 -119 89 -209 205 -209c36 0 82 13 124 34v181zM398 -41c44 0 82 -29 82 -82
c0 -25 -9 -47 -22 -66l-73 -106h-82l45 106c-23 16 -33 39 -33 65c0 49 35 83 83 83z" />
    <glyph glyph-name="gcommaaccent" unicode="&#x123;" horiz-adv-x="647" 
d="M317 580c-44 0 -82 29 -82 82c0 25 9 47 22 66l73 106h82l-45 -106c23 -16 33 -39 33 -65c0 -49 -35 -83 -83 -83zM584 539v-490c0 -153 -118 -250 -292 -250c-94 0 -179 30 -240 71l60 117c49 -34 109 -54 167 -54c83 0 133 44 133 111v57c-35 -46 -88 -72 -155 -72
c-136 0 -232 104 -232 261c0 153 93 255 228 255c69 1 123 -25 159 -72v66h172zM300 154c67 0 112 54 112 131c0 79 -45 132 -112 132c-68 0 -114 -54 -114 -132c0 -77 46 -131 114 -131z" />
    <glyph glyph-name="hbar" unicode="&#x127;" horiz-adv-x="743" 
d="M428 547c119 0 197 -81 197 -207v-340h-173v292c0 63 -36 102 -95 102c-68 0 -110 -54 -110 -128v-266h-173v576h-79v94h79v72h173v-72h118v-94h-118v-126c38 64 101 96 181 97z" />
    <glyph glyph-name="Itilde" unicode="&#x128;" horiz-adv-x="318" 
d="M86 938c59 0 87 -47 115 -47c21 0 31 14 31 42h105c0 -105 -34 -155 -104 -155c-61 0 -87 47 -116 47c-20 0 -30 -14 -30 -43h-106c0 105 35 156 105 156zM248 0h-178v700h178v-700z" />
    <glyph glyph-name="itilde" unicode="&#x129;" horiz-adv-x="311" 
d="M82 777c59 0 87 -47 115 -47c21 0 31 14 31 42h105c0 -105 -34 -155 -104 -155c-61 0 -87 47 -116 47c-20 0 -30 -14 -30 -43h-106c0 105 35 156 105 156zM241 0h-172v539h172v-539z" />
    <glyph glyph-name="Imacron" unicode="&#x12a;" horiz-adv-x="318" 
d="M298 793h-278v116h278v-116zM248 0h-178v700h178v-700z" />
    <glyph glyph-name="imacron" unicode="&#x12b;" horiz-adv-x="311" 
d="M294 632h-278v116h278v-116zM241 0h-172v539h172v-539z" />
    <glyph glyph-name="Iogonek" unicode="&#x12e;" horiz-adv-x="318" 
d="M231 -85l44 -51c-25 -43 -65 -67 -108 -67c-40 0 -88 21 -88 83c0 39 19 78 47 120h-56v701h178v-701h-38c-28 -41 -44 -73 -44 -92c0 -16 9 -24 21 -24c16 0 31 12 44 31z" />
    <glyph glyph-name="iogonek" unicode="&#x12f;" horiz-adv-x="290" 
d="M146 785c54 0 92 -38 92 -92c0 -53 -38 -91 -92 -91c-53 0 -92 38 -92 91c0 54 39 92 92 92zM232 0h-40c-28 -41 -44 -73 -44 -92c0 -16 9 -24 22 -24c15 0 30 12 43 31l44 -51c-25 -43 -65 -67 -108 -67c-41 0 -88 21 -88 83c0 39 19 78 47 120h-48v539h172v-539z" />
    <glyph glyph-name="Idotaccent" unicode="&#x130;" horiz-adv-x="318" 
d="M159 946c53 0 91 -38 91 -91c0 -54 -38 -92 -91 -92s-91 38 -91 92c0 53 38 91 91 91zM248 0h-178v700h178v-700z" />
    <glyph glyph-name="dotlessi" unicode="&#x131;" horiz-adv-x="311" 
d="M241 0h-172v539h172v-539z" />
    <glyph glyph-name="IJ" unicode="&#x132;" horiz-adv-x="853" 
d="M796 701v-474c0 -149 -93 -235 -242 -235c-99 0 -179 41 -241 112l82 119c50 -52 106 -78 147 -78c47 0 75 29 75 86v326h-240v144h419zM248 0h-178v700h178v-700z" />
    <glyph glyph-name="ij" unicode="&#x133;" horiz-adv-x="630" 
d="M156 785c53 0 91 -38 91 -91c0 -54 -38 -92 -91 -92s-91 38 -91 92c0 53 38 91 91 91zM468 785c58 0 98 -38 98 -92c0 -53 -40 -91 -98 -91c-57 0 -98 38 -98 91c0 54 41 92 98 92zM241 0h-172v539h172v-539zM555 539v-555c0 -121 -86 -186 -196 -185
c-50 0 -98 12 -135 35l44 121c20 -12 41 -19 61 -19c32 -1 53 18 53 59v544h173z" />
    <glyph glyph-name="Jcircumflex" unicode="&#x134;" horiz-adv-x="536" 
d="M448 771h-124l-58 85l-58 -85h-124l113 151h138zM478 701v-474c0 -149 -93 -235 -242 -235c-99 0 -179 41 -241 112l82 119c50 -52 106 -78 147 -78c47 0 75 29 75 86v326h-240v144h419z" />
    <glyph glyph-name="jcircumflex" unicode="&#x135;" horiz-adv-x="308" 
d="M333 610h-124l-58 85l-58 -85h-124l113 151h138zM244 539v-559c0 -114 -74 -182 -191 -181c-54 1 -103 13 -143 35l40 119c21 -12 42 -19 64 -19c37 -1 57 23 57 71v534h173z" />
    <glyph glyph-name="Kcommaaccent" unicode="&#x136;" horiz-adv-x="747" 
d="M739 0h-213l-185 275l-93 -103v-172h-178v700h178v-303l268 303h206l-260 -290zM370 -41c44 0 82 -29 82 -82c0 -25 -9 -47 -22 -66l-73 -106h-82l45 106c-23 16 -33 39 -33 65c0 49 35 83 83 83z" />
    <glyph glyph-name="kcedilla" unicode="&#x137;" horiz-adv-x="630" 
d="M305 208l-58 -61v-147h-46l-26 -49c40 -10 68 -42 68 -79c0 -64 -49 -106 -126 -106c-29 0 -66 12 -93 31l31 71c12 -11 30 -19 47 -19c27 0 45 16 44 40c0 23 -18 38 -45 38c-9 0 -24 -1 -35 -3l38 76h-30v742h173v-392l178 189h196l-198 -207l204 -332h-205z" />
    <glyph glyph-name="kgreenlandic" unicode="&#x138;" horiz-adv-x="624" 
d="M299 208l-58 -61v-147h-172v539h172v-189l178 189h196l-198 -207l204 -332h-205z" />
    <glyph glyph-name="Lacute" unicode="&#x139;" horiz-adv-x="560" 
d="M331 874l-130 -113h-132l106 168zM248 149h297v-149h-475v700h178v-551z" />
    <glyph glyph-name="lacute" unicode="&#x13a;" horiz-adv-x="321" 
d="M336 916l-130 -113h-132l106 168zM247 0h-173v742h173v-742z" />
    <glyph glyph-name="Lcommaaccent" unicode="&#x13b;" horiz-adv-x="560" 
d="M545 149v-149h-475v700h178v-551h297zM297 -41c44 0 82 -29 82 -82c0 -25 -9 -47 -22 -66l-73 -106h-82l45 106c-23 16 -33 39 -33 65c0 49 35 83 83 83z" />
    <glyph glyph-name="lcommaaccent" unicode="&#x13c;" horiz-adv-x="321" 
d="M247 0h-173v742h173v-742zM168 -41c44 0 82 -29 82 -82c0 -25 -9 -47 -22 -66l-73 -106h-82l45 106c-23 16 -33 39 -33 65c0 49 35 83 83 83z" />
    <glyph glyph-name="Lcaron" unicode="&#x13d;" horiz-adv-x="560" 
d="M545 149v-149h-475v700h178v-551h297zM356 415l45 107c-23 15 -33 39 -33 65c0 48 35 82 83 82c44 0 82 -29 82 -82c0 -25 -9 -46 -22 -66l-73 -106h-82z" />
    <glyph glyph-name="lcaron" unicode="&#x13e;" horiz-adv-x="406" 
d="M74 742h173v-742h-173v742zM365 677c44 0 82 -29 82 -82c0 -25 -9 -46 -22 -66l-73 -106h-82l45 107c-23 15 -33 39 -33 65c0 48 35 82 83 82z" />
    <glyph glyph-name="Ldot" unicode="&#x13f;" horiz-adv-x="560" 
d="M248 149h297v-149h-475v700h178v-551zM413 562c48 0 83 -34 83 -82s-35 -82 -83 -82c-47 0 -81 34 -81 82s34 82 81 82z" />
    <glyph glyph-name="ldot" unicode="&#x140;" horiz-adv-x="393" 
d="M247 0h-173v742h173v-742zM347 395c48 0 82 -34 82 -83s-34 -83 -82 -83c-49 0 -83 34 -83 83s34 83 83 83z" />
    <glyph glyph-name="Lslash" unicode="&#x141;" horiz-adv-x="580" 
d="M564 149v-149h-475v333l-73 -21l-29 104l102 30v254h178v-203l144 42l29 -105l-173 -50v-235h297z" />
    <glyph glyph-name="lslash" unicode="&#x142;" horiz-adv-x="343" 
d="M268 402v-402h-173v352l-99 -28l-30 104l129 37v277h173v-227l82 24l29 -105z" />
    <glyph glyph-name="Nacute" unicode="&#x143;" horiz-adv-x="786" 
d="M569 874l-130 -113h-132l106 168zM716 0h-157l-322 431v-431h-167v700h157l323 -432v432h166v-700z" />
    <glyph glyph-name="nacute" unicode="&#x144;" horiz-adv-x="673" 
d="M399 600h-132l106 168l156 -55zM422 547c119 0 197 -81 197 -207v-340h-172v292c0 63 -37 102 -95 102c-63 0 -103 -45 -110 -109v-285h-173v539h173v-88c38 63 100 95 180 96z" />
    <glyph glyph-name="Ncommaaccent" unicode="&#x145;" horiz-adv-x="786" 
d="M716 700v-700h-157l-322 431v-431h-167v700h157l323 -432v432h166zM400 -41c44 0 82 -29 82 -82c0 -25 -9 -47 -22 -66l-73 -106h-82l45 106c-23 16 -33 39 -33 65c0 49 35 83 83 83z" />
    <glyph glyph-name="ncommaaccent" unicode="&#x146;" horiz-adv-x="673" 
d="M422 547c119 0 197 -81 197 -207v-340h-172v292c0 63 -37 102 -95 102c-63 0 -103 -45 -110 -109v-285h-173v539h173v-88c38 63 100 95 180 96zM348 -41c44 0 82 -29 82 -82c0 -25 -9 -47 -22 -66l-73 -106h-82l45 106c-23 16 -33 39 -33 65c0 49 35 83 83 83z" />
    <glyph glyph-name="Ncaron" unicode="&#x147;" horiz-adv-x="786" 
d="M193 922h135l61 -92l61 92h135l-121 -164h-150zM716 0h-157l-322 431v-431h-167v700h157l323 -432v432h166v-700z" />
    <glyph glyph-name="ncaron" unicode="&#x148;" horiz-adv-x="673" 
d="M274 597l-121 164h135l61 -92l61 92h135l-121 -164h-150zM422 547c119 0 197 -81 197 -207v-340h-172v292c0 63 -37 102 -95 102c-63 0 -103 -45 -110 -109v-285h-173v539h173v-88c38 63 100 95 180 96z" />
    <glyph glyph-name="Omacron" unicode="&#x14c;" horiz-adv-x="805" 
d="M534 793h-278v116h278v-116zM402 706c217 0 379 -152 379 -355c0 -204 -162 -359 -379 -359c-216 0 -378 154 -378 359c0 204 162 355 378 355zM404 557c-108 0 -198 -89 -198 -207s91 -209 198 -209c108 0 194 91 194 209s-86 207 -194 207z" />
    <glyph glyph-name="omacron" unicode="&#x14d;" horiz-adv-x="637" 
d="M457 632h-278v116h278v-116zM319 545c176 0 294 -109 294 -275s-118 -276 -294 -276c-177 0 -295 110 -295 276s118 275 295 275zM319 408c-72 0 -121 -57 -121 -140c0 -84 49 -140 121 -140c71 0 120 56 120 140c0 83 -49 140 -120 140z" />
    <glyph glyph-name="Ohungarumlaut" unicode="&#x150;" horiz-adv-x="805" 
d="M437 883l-90 -123h-126l85 171zM631 883l-90 -123h-126l85 171zM402 706c217 0 379 -152 379 -355c0 -204 -162 -359 -379 -359c-216 0 -378 154 -378 359c0 204 162 355 378 355zM404 557c-108 0 -198 -89 -198 -207s91 -209 198 -209c108 0 194 91 194 209
s-86 207 -194 207z" />
    <glyph glyph-name="ohungarumlaut" unicode="&#x151;" horiz-adv-x="637" 
d="M361 721l-90 -123h-126l85 171zM555 721l-90 -123h-126l85 171zM319 545c176 0 294 -109 294 -275s-118 -276 -294 -276c-177 0 -295 110 -295 276s118 275 295 275zM319 408c-72 0 -121 -57 -121 -140c0 -84 49 -140 121 -140c71 0 120 56 120 140
c0 83 -49 140 -120 140z" />
    <glyph glyph-name="OE" unicode="&#x152;" horiz-adv-x="1113" 
d="M1068 140v-140h-667c-214 0 -377 149 -377 349s161 352 377 352h657v-141h-371v-139h334v-139h-334v-142h381zM509 144v410h-107c-112 0 -196 -88 -196 -206c0 -117 84 -205 196 -205z" />
    <glyph glyph-name="oe" unicode="&#x153;" horiz-adv-x="1019" 
d="M715 545c179 0 288 -124 279 -313h-391c15 -70 64 -109 131 -109c48 0 94 19 131 55l91 -89c-56 -60 -137 -95 -237 -95c-90 0 -156 33 -198 90c-44 -57 -113 -90 -202 -90c-177 0 -295 110 -295 276s118 275 295 275c90 0 159 -33 203 -91c41 58 107 91 193 91zM602 315
h220c0 66 -43 114 -106 114c-61 0 -103 -47 -114 -114zM319 128c71 0 120 56 120 140c0 83 -49 140 -120 140c-72 0 -121 -57 -121 -140c0 -84 49 -140 121 -140z" />
    <glyph glyph-name="Racute" unicode="&#x154;" horiz-adv-x="724" 
d="M409 761h-132l106 168l156 -55zM492 0l-104 197h-5h-135v-197h-178v700h313c185 0 291 -88 291 -244c0 -107 -45 -184 -127 -225l147 -231h-202zM248 337h135c77 0 122 39 122 113c0 73 -45 110 -122 110h-135v-223z" />
    <glyph glyph-name="racute" unicode="&#x155;" horiz-adv-x="427" 
d="M270 600h-132l106 168l156 -55zM242 539v-91c37 63 98 98 175 99v-156c-100 9 -166 -38 -175 -114v-277h-173v539h173z" />
    <glyph glyph-name="Rcommaaccent" unicode="&#x156;" horiz-adv-x="724" 
d="M694 0h-202l-104 197h-5h-135v-197h-178v700h313c185 0 291 -88 291 -244c0 -107 -45 -184 -127 -225zM248 337h135c77 0 122 39 122 113c0 73 -45 110 -122 110h-135v-223zM366 -41c44 0 82 -29 82 -82c0 -25 -9 -47 -22 -66l-73 -106h-82l45 106c-23 16 -33 39 -33 65
c0 49 35 83 83 83z" />
    <glyph glyph-name="rcommaaccent" unicode="&#x157;" horiz-adv-x="427" 
d="M242 539v-91c37 63 98 98 175 99v-156c-100 9 -166 -38 -175 -114v-277h-173v539h173zM157 -41c44 0 82 -29 82 -82c0 -25 -9 -47 -22 -66l-73 -106h-82l45 106c-23 16 -33 39 -33 65c0 49 35 83 83 83z" />
    <glyph glyph-name="Rcaron" unicode="&#x158;" horiz-adv-x="724" 
d="M284 758l-121 164h135l61 -92l61 92h135l-121 -164h-150zM492 0l-104 197h-5h-135v-197h-178v700h313c185 0 291 -88 291 -244c0 -107 -45 -184 -127 -225l147 -231h-202zM248 337h135c77 0 122 39 122 113c0 73 -45 110 -122 110h-135v-223z" />
    <glyph glyph-name="rcaron" unicode="&#x159;" horiz-adv-x="427" 
d="M145 597l-121 164h135l61 -92l61 92h135l-121 -164h-150zM242 539v-91c37 63 98 98 175 99v-156c-100 9 -166 -38 -175 -114v-277h-173v539h173z" />
    <glyph glyph-name="Sacute" unicode="&#x15a;" horiz-adv-x="644" 
d="M515 874l-130 -113h-132l106 168zM339 708c101 0 204 -31 276 -78l-67 -139c-74 43 -167 73 -224 73c-46 0 -77 -17 -77 -51c0 -121 370 -52 370 -305c0 -140 -124 -214 -280 -214c-117 0 -237 44 -320 112l69 137c72 -63 180 -105 253 -105c56 0 91 21 91 61
c0 124 -370 50 -370 298c0 129 111 211 279 211z" />
    <glyph glyph-name="sacute" unicode="&#x15b;" horiz-adv-x="513" 
d="M441 713l-130 -113h-132l106 168zM262 547c78 0 156 -22 222 -61l-59 -112c-65 35 -125 54 -170 54c-31 0 -53 -12 -53 -37c0 -74 284 -38 283 -226c0 -111 -97 -172 -227 -172c-90 0 -177 26 -242 76l55 110c61 -43 131 -67 191 -67c34 0 59 12 59 37
c0 79 -279 38 -278 227c0 111 94 171 219 171z" />
    <glyph glyph-name="Scedilla" unicode="&#x15e;" horiz-adv-x="644" 
d="M617 208c0 -121 -93 -193 -219 -210l-25 -49c41 -11 68 -40 68 -81c0 -63 -52 -103 -125 -103c-31 0 -67 12 -95 31l32 71c13 -12 32 -20 49 -20c26 0 42 17 42 37s-16 36 -46 36c-10 0 -24 -2 -36 -4l38 79c-105 9 -209 50 -283 111l69 137c72 -63 180 -105 253 -105
c56 0 91 21 91 61c0 124 -370 50 -370 298c0 129 111 211 279 211c101 0 204 -31 276 -78l-67 -139c-74 43 -167 73 -224 73c-46 0 -77 -17 -77 -51c0 -121 370 -52 370 -305z" />
    <glyph glyph-name="scedilla" unicode="&#x15f;" horiz-adv-x="513" 
d="M202 391c0 -74 284 -38 283 -226c0 -92 -66 -149 -163 -167l-25 -49c41 -11 68 -40 68 -81c0 -63 -52 -103 -125 -103c-31 0 -67 12 -95 31l32 71c13 -12 32 -20 49 -20c26 0 42 17 42 37s-16 36 -46 36c-10 0 -24 -2 -36 -4l38 78c-78 6 -151 31 -208 75l55 110
c61 -43 131 -67 191 -67c34 0 59 12 59 37c0 79 -279 38 -278 227c0 111 94 171 219 171c78 0 156 -22 222 -61l-59 -112c-65 35 -125 54 -170 54c-31 0 -53 -12 -53 -37z" />
    <glyph glyph-name="Scaron" unicode="&#x160;" horiz-adv-x="644" 
d="M139 922h135l61 -92l61 92h135l-121 -164h-150zM339 708c101 0 204 -31 276 -78l-67 -139c-74 43 -167 73 -224 73c-46 0 -77 -17 -77 -51c0 -121 370 -52 370 -305c0 -140 -124 -214 -280 -214c-117 0 -237 44 -320 112l69 137c72 -63 180 -105 253 -105
c56 0 91 21 91 61c0 124 -370 50 -370 298c0 129 111 211 279 211z" />
    <glyph glyph-name="scaron" unicode="&#x161;" horiz-adv-x="513" 
d="M66 761h135l61 -92l61 92h135l-121 -164h-150zM262 547c78 0 156 -22 222 -61l-59 -112c-65 35 -125 54 -170 54c-31 0 -53 -12 -53 -37c0 -74 284 -38 283 -226c0 -111 -97 -172 -227 -172c-90 0 -177 26 -242 76l55 110c61 -43 131 -67 191 -67c34 0 59 12 59 37
c0 79 -279 38 -278 227c0 111 94 171 219 171z" />
    <glyph glyph-name="Tcedilla" unicode="&#x162;" horiz-adv-x="611" 
d="M361 0l-26 -51c41 -11 68 -40 68 -81c0 -63 -52 -103 -125 -103c-31 0 -67 12 -95 31l32 71c13 -12 32 -20 49 -20c26 0 42 17 42 37s-16 36 -46 36c-10 0 -24 -2 -36 -4l40 84h-48v557h-209v144h598v-144h-211v-557h-33z" />
    <glyph glyph-name="tcedilla" unicode="&#x163;" horiz-adv-x="435" 
d="M325 -3l-24 -48c41 -11 68 -40 68 -81c0 -63 -52 -103 -125 -103c-31 0 -67 12 -95 31l32 71c13 -12 32 -20 49 -20c26 0 42 17 42 37s-16 36 -46 36c-10 0 -24 -2 -36 -4l38 80c-80 15 -134 72 -134 167v238h-75v113h75v150h172v-149h141v-114h-141v-211
c0 -42 18 -60 50 -59c18 0 41 7 67 18l34 -120c-26 -15 -58 -27 -92 -32z" />
    <glyph glyph-name="Tcaron" unicode="&#x164;" horiz-adv-x="611" 
d="M117 922h135l61 -92l61 92h135l-121 -164h-150zM605 557h-211v-557h-178v557h-209v144h598v-144z" />
    <glyph glyph-name="tcaron" unicode="&#x165;" horiz-adv-x="428" 
d="M402 833c44 0 82 -29 82 -82c0 -25 -9 -46 -22 -66l-73 -106h-82l45 107c-23 15 -33 39 -33 65c0 48 35 82 83 82zM316 131c18 0 41 7 67 18l34 -120c-39 -23 -92 -37 -144 -37c-104 0 -179 59 -179 171v238h-75v113h75v150h172v-149h141v-114h-141v-211
c0 -42 18 -60 50 -59z" />
    <glyph glyph-name="Umacron" unicode="&#x16a;" horiz-adv-x="758" 
d="M518 793h-278v116h278v-116zM700 700v-406c0 -185 -123 -302 -319 -302c-197 0 -323 117 -323 302v406h178v-406c0 -95 61 -153 146 -153c84 0 141 58 141 153v406h177z" />
    <glyph glyph-name="umacron" unicode="&#x16b;" horiz-adv-x="663" 
d="M466 632h-278v116h278v-116zM594 539v-539h-173v89c-37 -64 -97 -96 -175 -96c-117 0 -193 80 -193 206v340h173v-291c0 -64 35 -103 90 -103c66 1 105 55 105 128v266h173z" />
    <glyph glyph-name="Uring" unicode="&#x16e;" horiz-adv-x="758" 
d="M379 975c67 0 121 -54 121 -120s-54 -120 -121 -120s-121 54 -121 120s54 120 121 120zM379 907c-29 0 -53 -24 -53 -52c0 -29 24 -52 53 -52s53 23 53 52c0 28 -24 52 -53 52zM700 700v-406c0 -185 -123 -302 -319 -302c-197 0 -323 117 -323 302v406h178v-406
c0 -95 61 -153 146 -153c84 0 141 58 141 153v406h177z" />
    <glyph glyph-name="uring" unicode="&#x16f;" horiz-adv-x="663" 
d="M327 574c-67 0 -121 54 -121 120s54 120 121 120s121 -54 121 -120s-54 -120 -121 -120zM327 746c-29 0 -53 -24 -53 -52c0 -29 24 -52 53 -52s53 23 53 52c0 28 -24 52 -53 52zM594 539v-539h-173v89c-37 -64 -97 -96 -175 -96c-117 0 -193 80 -193 206v340h173v-291
c0 -64 35 -103 90 -103c66 1 105 55 105 128v266h173z" />
    <glyph glyph-name="Uhungarumlaut" unicode="&#x170;" horiz-adv-x="758" 
d="M422 883l-90 -123h-126l85 171zM616 883l-90 -123h-126l85 171zM700 700v-406c0 -185 -123 -302 -319 -302c-197 0 -323 117 -323 302v406h178v-406c0 -95 61 -153 146 -153c84 0 141 58 141 153v406h177z" />
    <glyph glyph-name="uhungarumlaut" unicode="&#x171;" horiz-adv-x="663" 
d="M279 599h-126l85 171l131 -48zM347 599l85 171l131 -48l-90 -123h-126zM594 539v-539h-173v89c-37 -64 -97 -96 -175 -96c-117 0 -193 80 -193 206v340h173v-291c0 -64 35 -103 90 -103c66 1 105 55 105 128v266h173z" />
    <glyph glyph-name="Uogonek" unicode="&#x172;" horiz-adv-x="759" 
d="M701 701v-407c0 -142 -73 -244 -196 -284c-31 -45 -50 -80 -50 -102c0 -16 8 -24 21 -24c16 0 30 12 43 31l44 -51c-25 -43 -64 -67 -108 -67c-40 0 -88 21 -88 83c0 37 17 75 43 113l-29 -1c-197 0 -323 117 -323 302v407h177v-407c0 -95 62 -153 147 -153
c84 0 141 57 141 153v407h178z" />
    <glyph glyph-name="uogonek" unicode="&#x173;" horiz-adv-x="660" 
d="M598 0h-42c-29 -41 -44 -73 -44 -92c0 -16 9 -24 22 -24c15 0 30 12 43 31l44 -51c-25 -43 -65 -67 -108 -67c-40 0 -88 21 -88 83c0 39 19 78 47 120h-46v89c-37 -64 -98 -96 -177 -96c-118 0 -195 80 -195 206v340h172v-291c0 -64 36 -103 94 -103c63 1 102 49 106 117
v277h172v-539z" />
    <glyph glyph-name="Wcircumflex" unicode="&#x174;" horiz-adv-x="1081" 
d="M696 771h-124l-58 85l-58 -85h-124l113 151h138zM857 0h-183l-130 484l-132 -484h-184l-229 700h190l137 -515l134 515h174l137 -515l135 515h182z" />
    <glyph glyph-name="wcircumflex" unicode="&#x175;" horiz-adv-x="937" 
d="M651 610h-124l-58 85l-58 -85h-124l113 151h138zM747 0h-171l-106 342l-106 -342h-172l-197 539h176l111 -373l108 373h165l111 -373l109 373h169z" />
    <glyph glyph-name="Ycircumflex" unicode="&#x176;" horiz-adv-x="680" 
d="M282 771h-124l113 151h138l113 -151h-124l-58 85zM431 226v-226h-177v221l-259 479h178l169 -305l165 305h178z" />
    <glyph glyph-name="ycircumflex" unicode="&#x177;" horiz-adv-x="580" 
d="M473 610h-124l-58 85l-58 -85h-124l113 151h138zM587 539l-233 -595c-40 -98 -108 -146 -208 -146c-60 0 -109 18 -157 55l72 118c25 -20 46 -29 71 -29c31 0 53 14 67 43l13 27l-224 527h178l132 -358l117 358h172z" />
    <glyph glyph-name="Ydieresis" unicode="&#x178;" horiz-adv-x="680" 
d="M244 775c-45 0 -78 32 -78 77c0 46 33 78 78 78s78 -32 78 -78c0 -45 -33 -77 -78 -77zM437 775c-45 0 -78 32 -78 77c0 46 33 78 78 78s78 -32 78 -78c0 -45 -33 -77 -78 -77zM431 226v-226h-177v221l-259 479h178l169 -305l165 305h178z" />
    <glyph glyph-name="Zacute" unicode="&#x179;" horiz-adv-x="675" 
d="M528 874l-130 -113h-132l106 168zM640 586l-374 -445h380v-141h-618v114l375 445h-362v141h599v-114z" />
    <glyph glyph-name="zacute" unicode="&#x17a;" horiz-adv-x="553" 
d="M452 713l-130 -113h-132l106 168zM515 435l-264 -305h273v-130h-490v104l265 305h-255v130h471v-104z" />
    <glyph glyph-name="Zdotaccent" unicode="&#x17b;" horiz-adv-x="675" 
d="M353 946c53 0 91 -38 91 -91c0 -54 -38 -92 -91 -92s-91 38 -91 92c0 53 38 91 91 91zM640 586l-374 -445h380v-141h-618v114l375 445h-362v141h599v-114z" />
    <glyph glyph-name="zdotaccent" unicode="&#x17c;" horiz-adv-x="553" 
d="M277 785c53 0 91 -38 91 -91c0 -54 -38 -92 -91 -92s-91 38 -91 92c0 53 38 91 91 91zM515 435l-264 -305h273v-130h-490v104l265 305h-255v130h471v-104z" />
    <glyph glyph-name="Zcaron" unicode="&#x17d;" horiz-adv-x="675" 
d="M152 922h135l61 -92l61 92h135l-121 -164h-150zM640 586l-374 -445h380v-141h-618v114l375 445h-362v141h599v-114z" />
    <glyph glyph-name="zcaron" unicode="&#x17e;" horiz-adv-x="553" 
d="M76 760h135l61 -92l61 92h135l-121 -164h-150zM515 435l-264 -305h273v-130h-490v104l265 305h-255v130h471v-104z" />
    <glyph glyph-name="florin" unicode="&#x192;" horiz-adv-x="410" 
d="M364 618c-40 1 -69 -26 -74 -68l-10 -84h122l-14 -111h-122l-46 -379c-14 -109 -93 -179 -211 -178c-43 1 -93 16 -122 39l44 119c16 -14 40 -23 58 -23c36 -1 57 26 62 68l44 354h-73l14 111h73l13 109c13 108 98 178 215 177c53 0 111 -15 147 -39l-58 -118
c-18 14 -42 22 -62 23z" />
    <glyph glyph-name="Scommaaccent" unicode="&#x218;" horiz-adv-x="644" 
d="M247 513c0 -121 370 -52 370 -305c0 -140 -124 -214 -280 -214c-117 0 -237 44 -320 112l69 137c72 -63 180 -105 253 -105c56 0 91 21 91 61c0 124 -370 50 -370 298c0 129 111 211 279 211c101 0 204 -31 276 -78l-67 -139c-74 43 -167 73 -224 73
c-46 0 -77 -17 -77 -51zM338 -41c44 0 82 -29 82 -82c0 -25 -9 -47 -22 -66l-73 -106h-82l45 106c-23 16 -33 39 -33 65c0 49 35 83 83 83z" />
    <glyph glyph-name="scommaaccent" unicode="&#x219;" horiz-adv-x="513" 
d="M202 391c0 -74 284 -38 283 -226c0 -111 -97 -172 -227 -172c-90 0 -177 26 -242 76l55 110c61 -43 131 -67 191 -67c34 0 59 12 59 37c0 79 -279 38 -278 227c0 111 94 171 219 171c78 0 156 -22 222 -61l-59 -112c-65 35 -125 54 -170 54c-31 0 -53 -12 -53 -37z
M262 -41c44 0 82 -29 82 -82c0 -25 -9 -47 -22 -66l-73 -106h-82l45 106c-23 16 -33 39 -33 65c0 49 35 83 83 83z" />
    <glyph glyph-name="Tcommaaccent" unicode="&#x21a;" horiz-adv-x="611" 
d="M605 701v-144h-211v-557h-178v557h-209v144h598zM300 -41c44 0 82 -29 82 -82c0 -25 -9 -47 -22 -66l-73 -106h-82l45 106c-23 16 -33 39 -33 65c0 49 35 83 83 83z" />
    <glyph glyph-name="tcommaaccent" unicode="&#x21b;" horiz-adv-x="435" 
d="M383 149l34 -120c-39 -23 -92 -37 -144 -37c-104 0 -179 59 -179 171v238h-75v113h75v150h172v-149h141v-114h-141v-211c0 -42 18 -60 50 -59c18 0 41 7 67 18zM265 -41c44 0 82 -29 82 -82c0 -25 -9 -47 -22 -66l-73 -106h-82l45 106c-23 16 -33 39 -33 65
c0 49 35 83 83 83z" />
    <glyph glyph-name="dotlessj" unicode="&#x237;" horiz-adv-x="308" 
d="M244 539v-559c0 -114 -74 -182 -191 -181c-54 1 -103 13 -143 35l40 119c21 -12 42 -19 64 -19c37 -1 57 23 57 71v534h173z" />
    <glyph glyph-name="circumflex" unicode="&#x2c6;" 
d="M357 611h-124l-58 85l-58 -85h-124l113 151h138z" />
    <glyph glyph-name="caron" unicode="&#x2c7;" 
d="M-21 762h135l61 -92l61 92h135l-121 -164h-150z" />
    <glyph glyph-name="firsttonechinese" unicode="&#x2c9;" 
d="M314 632h-278v116h278v-116z" />
    <glyph glyph-name="breve" unicode="&#x2d8;" 
d="M231 759h108c-5 -96 -70 -158 -164 -158s-159 62 -164 158h108c3 -34 25 -58 56 -58s53 24 56 58z" />
    <glyph glyph-name="dotaccent" unicode="&#x2d9;" 
d="M175 785c53 0 91 -38 91 -91c0 -54 -38 -92 -91 -92s-91 38 -91 92c0 53 38 91 91 91z" />
    <glyph glyph-name="ring" unicode="&#x2da;" 
d="M175 814c67 0 121 -54 121 -120s-54 -120 -121 -120s-121 54 -121 120s54 120 121 120zM175 746c-29 0 -53 -24 -53 -52c0 -29 24 -52 53 -52s53 23 53 52c0 28 -24 52 -53 52z" />
    <glyph glyph-name="ogonek" unicode="&#x2db;" 
d="M138 18h84c-36 -49 -57 -87 -57 -110c0 -16 10 -24 22 -24c15 0 30 12 43 31l44 -51c-25 -43 -64 -67 -108 -67c-40 0 -88 21 -88 83c0 45 26 92 60 138z" />
    <glyph glyph-name="tilde" unicode="&#x2dc;" 
d="M102 777c59 0 87 -47 115 -47c21 0 31 14 31 42h105c0 -105 -34 -155 -104 -155c-61 0 -87 47 -116 47c-20 0 -30 -14 -30 -43h-106c0 105 35 156 105 156z" />
    <glyph glyph-name="hungarumlaut" unicode="&#x2dd;" 
d="M186 723l-90 -123h-126l85 171zM380 723l-90 -123h-126l85 171z" />
    <glyph glyph-name="commaaccent" unicode="&#x326;" horiz-adv-x="0" 
d="M122 -41c44 0 82 -29 82 -82c0 -25 -9 -47 -22 -66l-73 -106h-82l45 106c-23 16 -33 39 -33 65c0 49 35 83 83 83z" />
    <glyph glyph-name="Delta" unicode="&#x394;" horiz-adv-x="770" 
d="M775 0h-780l302 700h183zM536 129l-153 394l-154 -394h307z" />
    <glyph glyph-name="pi" unicode="&#x3c0;" horiz-adv-x="729" 
d="M592 418v-418h-143v418h-89l-45 -418h-142l44 418h-31c-40 0 -69 -26 -68 -63c0 -19 9 -46 22 -69l-119 -41c-22 41 -37 95 -37 139c-1 89 75 155 180 155h553l1 -121h-126z" />
    <glyph glyph-name="Wgrave" unicode="&#x1e80;" horiz-adv-x="1081" 
d="M602 761h-132l-130 113l156 55zM857 0h-183l-130 484l-132 -484h-184l-229 700h190l137 -515l134 515h174l137 -515l135 515h182z" />
    <glyph glyph-name="wgrave" unicode="&#x1e81;" horiz-adv-x="937" 
d="M557 600h-132l-130 113l156 55zM747 0h-171l-106 342l-106 -342h-172l-197 539h176l111 -373l108 373h165l111 -373l109 373h169z" />
    <glyph glyph-name="Wacute" unicode="&#x1e82;" horiz-adv-x="1081" 
d="M690 874l-130 -113h-132l106 168zM857 0h-183l-130 484l-132 -484h-184l-229 700h190l137 -515l134 515h174l137 -515l135 515h182z" />
    <glyph glyph-name="wacute" unicode="&#x1e83;" horiz-adv-x="937" 
d="M644 713l-130 -113h-132l106 168zM747 0h-171l-106 342l-106 -342h-172l-197 539h176l111 -373l108 373h165l111 -373l109 373h169z" />
    <glyph glyph-name="Wdieresis" unicode="&#x1e84;" horiz-adv-x="1081" 
d="M418 930c45 0 78 -32 78 -78c0 -45 -33 -77 -78 -77s-78 32 -78 77c0 46 33 78 78 78zM611 930c45 0 78 -32 78 -78c0 -45 -33 -77 -78 -77s-78 32 -78 77c0 46 33 78 78 78zM857 0h-183l-130 484l-132 -484h-184l-229 700h190l137 -515l134 515h174l137 -515l135 515
h182z" />
    <glyph glyph-name="wdieresis" unicode="&#x1e85;" horiz-adv-x="937" 
d="M373 769c45 0 78 -32 78 -78c0 -45 -33 -77 -78 -77s-78 32 -78 77c0 46 33 78 78 78zM566 769c45 0 78 -32 78 -78c0 -45 -33 -77 -78 -77s-78 32 -78 77c0 46 33 78 78 78zM747 0h-171l-106 342l-106 -342h-172l-197 539h176l111 -373l108 373h165l111 -373l109 373
h169z" />
    <glyph glyph-name="Ygrave" unicode="&#x1ef2;" horiz-adv-x="680" 
d="M296 761l-130 113l156 55l106 -168h-132zM431 226v-226h-177v221l-259 479h178l169 -305l165 305h178z" />
    <glyph glyph-name="ygrave" unicode="&#x1ef3;" horiz-adv-x="580" 
d="M378 600h-132l-130 113l156 55zM587 539l-233 -595c-40 -98 -108 -146 -208 -146c-60 0 -109 18 -157 55l72 118c25 -20 46 -29 71 -29c31 0 53 14 67 43l13 27l-224 527h178l132 -358l117 358h172z" />
    <glyph glyph-name="endash" unicode="&#x2013;" horiz-adv-x="407" 
d="M407 217h-407v109h407v-109z" />
    <glyph glyph-name="emdash" unicode="&#x2014;" horiz-adv-x="648" 
d="M648 217h-648v109h648v-109z" />
    <glyph glyph-name="quoteleft" unicode="&#x2018;" horiz-adv-x="241" 
d="M204 703l-44 -106c22 -16 32 -39 32 -65c0 -48 -35 -82 -83 -82c-44 0 -82 29 -82 82c0 25 9 46 22 66l73 105h82z" />
    <glyph glyph-name="quoteright" unicode="&#x2019;" horiz-adv-x="241" 
d="M122 701c44 0 82 -30 82 -82c0 -26 -9 -47 -22 -66l-73 -106h-82l45 106c-23 16 -33 39 -33 65c0 49 35 83 83 83z" />
    <glyph glyph-name="quotesinglbase" unicode="&#x201a;" horiz-adv-x="241" 
d="M122 158c44 0 82 -29 82 -82c0 -25 -9 -46 -22 -66l-73 -106h-82l45 107c-23 15 -33 39 -33 65c0 48 35 82 83 82z" />
    <glyph glyph-name="quotedblleft" unicode="&#x201c;" horiz-adv-x="394" 
d="M204 704l-45 -107c23 -15 33 -39 33 -65c0 -48 -35 -82 -83 -82c-44 0 -82 29 -82 82c0 25 9 46 22 66l73 106h82zM389 704l-45 -107c23 -15 33 -39 33 -65c0 -48 -35 -82 -83 -82c-44 0 -82 29 -82 82c0 25 9 46 22 66l73 106h82z" />
    <glyph glyph-name="quotedblright" unicode="&#x201d;" horiz-adv-x="412" 
d="M122 701c44 0 82 -29 82 -82c0 -25 -9 -46 -22 -66l-73 -106h-82l45 107c-23 15 -33 39 -33 65c0 48 35 82 83 82zM307 701c44 0 82 -29 82 -82c0 -25 -9 -46 -22 -66l-73 -106h-82l45 107c-23 15 -33 39 -33 65c0 48 35 82 83 82z" />
    <glyph glyph-name="quotedblbase" unicode="&#x201e;" horiz-adv-x="426" 
d="M122 158c44 0 82 -29 82 -82c0 -25 -9 -46 -22 -66l-73 -106h-82l45 107c-23 15 -33 39 -33 65c0 48 35 82 83 82zM307 158c44 0 82 -29 82 -82c0 -25 -9 -46 -22 -66l-73 -106h-82l45 107c-23 15 -33 39 -33 65c0 48 35 82 83 82z" />
    <glyph glyph-name="dagger" unicode="&#x2020;" horiz-adv-x="574" 
d="M369 494h187v-140h-187v-541h-170v541h-181v140h181v205h170v-205z" />
    <glyph glyph-name="daggerdbl" unicode="&#x2021;" horiz-adv-x="574" 
d="M369 354v-183h187v-140h-187v-218h-170v218h-181v140h181v183h-181v140h181v205h170v-205h187v-140h-187z" />
    <glyph glyph-name="bullet" unicode="&#x2022;" horiz-adv-x="327" 
d="M163 401c74 0 126 -52 126 -125c0 -74 -52 -127 -126 -127c-73 0 -125 53 -125 127c0 73 52 125 125 125z" />
    <glyph glyph-name="ellipsis" unicode="&#x2026;" horiz-adv-x="680" 
d="M119 156c48 0 82 -34 82 -82s-34 -82 -82 -82c-47 0 -81 34 -81 82s34 82 81 82zM339 156c48 0 82 -34 82 -82s-34 -82 -82 -82c-47 0 -81 34 -81 82s34 82 81 82zM559 156c48 0 82 -34 82 -82s-34 -82 -82 -82c-47 0 -81 34 -81 82s34 82 81 82z" />
    <glyph glyph-name="perthousand" unicode="&#x2030;" horiz-adv-x="1476" 
d="M227 703c120 0 195 -81 195 -211c0 -131 -75 -212 -195 -212s-196 81 -196 212c0 130 76 211 196 211zM178 0l500 701h162l-500 -701h-162zM227 611c-53 0 -85 -45 -85 -119s32 -119 85 -119s85 45 85 119s-32 119 -85 119zM797 420c120 0 195 -81 195 -211
c0 -131 -75 -213 -195 -213s-196 82 -196 213c0 130 76 211 196 211zM1250 420c120 0 195 -81 195 -211c0 -131 -75 -213 -195 -213s-196 82 -196 213c0 130 76 211 196 211zM797 328c-53 0 -85 -45 -85 -119c0 -75 32 -120 85 -120s85 45 85 120c0 74 -32 119 -85 119z
M1250 328c-53 0 -85 -45 -85 -119c0 -75 32 -120 85 -120s85 45 85 120c0 74 -32 119 -85 119z" />
    <glyph glyph-name="guilsinglleft" unicode="&#x2039;" horiz-adv-x="281" 
d="M156 266l106 -184h-140l-120 184l120 184h140z" />
    <glyph glyph-name="guilsinglright" unicode="&#x203a;" horiz-adv-x="286" 
d="M142 266l-107 184h140l120 -184l-120 -184h-140z" />
    <glyph glyph-name="fraction" unicode="&#x2044;" horiz-adv-x="117" 
d="M-275 0l500 701h162l-500 -701h-162z" />
    <glyph glyph-name="Euro" unicode="&#x20ac;" horiz-adv-x="782" 
d="M667 230l103 -110c-74 -77 -185 -128 -289 -128c-169 0 -305 101 -351 247h-102v75h87c-1 12 -2 25 -2 38c0 12 1 24 2 35h-87v75h102c47 145 185 244 358 244c103 0 212 -46 281 -118l-102 -122c-47 56 -114 91 -177 91c-72 0 -133 -37 -166 -95h226v-75h-253
c-1 -11 -2 -22 -2 -33c0 -14 1 -27 3 -40h252v-75h-223c34 -56 94 -91 163 -91c60 0 127 32 177 82z" />
    <glyph glyph-name="literSign" unicode="&#x2113;" horiz-adv-x="473" 
d="M323 709c75 0 121 -50 121 -135c0 -151 -140 -273 -237 -354c-13 -79 7 -112 53 -112c50 0 90 40 122 79l51 -61c-60 -94 -134 -132 -210 -132c-94 0 -136 58 -143 152l-47 -30l-24 71l83 58l39 240c28 155 104 224 192 224zM319 619c-26 0 -51 -32 -66 -119l-26 -157
c59 59 122 149 122 228c0 30 -11 48 -30 48z" />
    <glyph glyph-name="trademark" unicode="&#x2122;" horiz-adv-x="904" 
d="M340 600h-112v-320h-125v320h-111v101h348v-101zM863 280h-112v245l-86 -204h-84l-86 204v-245h-112v421h137l103 -231l103 231h137v-421z" />
    <glyph glyph-name="Omega" unicode="&#x2126;" horiz-adv-x="856" 
d="M428 709c208 0 360 -139 360 -328c0 -85 -47 -186 -114 -242h175v-139h-349v129c76 50 131 151 131 237c0 115 -86 198 -203 198s-202 -83 -202 -198c0 -86 55 -187 131 -238v-128h-350v139h176c-67 56 -115 156 -115 242c0 189 152 328 360 328z" />
    <glyph glyph-name="estimated" unicode="&#x212e;" horiz-adv-x="809" 
d="M740 312h-543c-3 0 -5 -1 -5 -4v-164c0 -8 4 -14 8 -19c51 -55 125 -89 206 -89c86 0 164 39 215 99h49c-60 -70 -158 -117 -265 -117c-185 0 -335 135 -335 301c0 167 150 302 335 302s335 -135 335 -302v-7zM618 333v165c0 8 -4 15 -9 20c-52 52 -124 85 -203 85
c-81 0 -153 -34 -205 -88c-5 -5 -9 -12 -9 -20v-162c0 -3 2 -5 5 -5h416c3 0 5 2 5 5z" />
    <glyph glyph-name="oneeighth" unicode="&#x215b;" horiz-adv-x="895" 
d="M67 0l500 701h162l-500 -701h-162zM89 283v324h-79v93h201v-417h-122zM686 422c98 0 160 -45 160 -114c0 -34 -20 -66 -52 -85c46 -19 75 -60 75 -105c0 -76 -71 -123 -182 -123s-182 47 -182 121c0 47 32 88 81 107c-35 20 -58 54 -58 89c0 67 62 110 158 110zM687 345
c-37 0 -57 -15 -57 -43c0 -27 20 -42 57 -42s57 15 57 42c0 28 -20 43 -57 43zM687 176c-43 0 -67 -17 -67 -48c0 -32 24 -48 67 -48s67 16 67 48c0 31 -24 48 -67 48z" />
    <glyph glyph-name="threeeighths" unicode="&#x215c;" horiz-adv-x="954" 
d="M127 0l500 701h162l-500 -701h-162zM217 533l20 -4c60 -10 104 -50 104 -114c0 -80 -66 -137 -169 -137c-62 0 -127 21 -167 52l49 89c32 -36 69 -54 108 -54c38 0 60 18 60 49s-22 47 -61 47h-72v61l94 92h-157v85h295v-67zM745 422c98 0 160 -45 160 -114
c0 -34 -20 -66 -52 -85c46 -19 75 -60 75 -105c0 -76 -71 -123 -182 -123s-182 47 -182 121c0 47 32 88 81 107c-35 20 -58 54 -58 89c0 67 62 110 158 110zM746 345c-37 0 -57 -15 -57 -43c0 -27 20 -42 57 -42s57 15 57 42c0 28 -20 43 -57 43zM746 176
c-43 0 -67 -17 -67 -48c0 -32 24 -48 67 -48s67 16 67 48c0 31 -24 48 -67 48z" />
    <glyph glyph-name="fiveeighths" unicode="&#x215d;" horiz-adv-x="969" 
d="M142 0l500 701h162l-500 -701h-162zM162 610v-65c8 1 26 2 33 2c102 0 167 -48 167 -123c0 -88 -69 -146 -177 -146c-58 0 -126 22 -172 53l49 90c32 -37 70 -55 109 -55s60 17 60 50c0 29 -21 45 -60 45c-21 0 -94 -1 -120 -3v242h292v-90h-181zM760 422
c98 0 160 -45 160 -114c0 -34 -20 -66 -52 -85c46 -19 75 -60 75 -105c0 -76 -71 -123 -182 -123s-182 47 -182 121c0 47 32 88 81 107c-35 20 -58 54 -58 89c0 67 62 110 158 110zM761 345c-37 0 -57 -15 -57 -43c0 -27 20 -42 57 -42s57 15 57 42c0 28 -20 43 -57 43z
M761 176c-43 0 -67 -17 -67 -48c0 -32 24 -48 67 -48s67 16 67 48c0 31 -24 48 -67 48z" />
    <glyph glyph-name="seveneighths" unicode="&#x215e;" horiz-adv-x="941" 
d="M113 0l500 701h162l-500 -701h-162zM215 283h-128l152 327h-105v-59h-107v149h346v-79zM732 422c98 0 160 -45 160 -114c0 -34 -20 -66 -52 -85c46 -19 75 -60 75 -105c0 -76 -71 -123 -182 -123s-182 47 -182 121c0 47 32 88 81 107c-35 20 -58 54 -58 89
c0 67 62 110 158 110zM733 345c-37 0 -57 -15 -57 -43c0 -27 20 -42 57 -42s57 15 57 42c0 28 -20 43 -57 43zM733 176c-43 0 -67 -17 -67 -48c0 -32 24 -48 67 -48s67 16 67 48c0 31 -24 48 -67 48z" />
    <glyph glyph-name="partialdiff" unicode="&#x2202;" horiz-adv-x="632" 
d="M275 708c193 0 316 -143 316 -361c0 -219 -114 -355 -302 -355c-157 0 -261 93 -261 241c0 137 91 227 232 227c79 0 134 -35 160 -87c6 127 -49 197 -156 197c-58 0 -111 -18 -155 -55l-68 126c63 41 153 67 234 67zM293 330c-64 0 -100 -34 -100 -96
c0 -64 39 -99 103 -99c72 0 105 45 105 97c0 58 -39 98 -108 98z" />
    <glyph glyph-name="product" unicode="&#x220f;" horiz-adv-x="742" 
d="M672 -194h-173v800h-256v-800h-173v936h602v-936z" />
    <glyph glyph-name="summation" unicode="&#x2211;" horiz-adv-x="616" 
d="M600 596h-357l237 -293l-238 -292h368v-149h-583v124l264 317l-253 315v126h562v-148z" />
    <glyph glyph-name="minus" unicode="&#x2212;" horiz-adv-x="510" 
d="M477 272h-444v109h444v-109z" />
    <glyph glyph-name="divisionslash" unicode="&#x2215;" horiz-adv-x="353" 
d="M109 -111h-145l323 922h145z" />
    <glyph glyph-name="bulletoperator" unicode="&#x2219;" horiz-adv-x="327" 
d="M163 401c74 0 126 -52 126 -125c0 -74 -52 -127 -126 -127c-73 0 -125 53 -125 127c0 73 52 125 125 125z" />
    <glyph glyph-name="radical" unicode="&#x221a;" horiz-adv-x="708" 
d="M246 408l112 -393l197 731h165l-271 -903h-184l-137 430h-126v135h244z" />
    <glyph glyph-name="infinity" unicode="&#x221e;" horiz-adv-x="854" 
d="M625 513c118 0 205 -90 205 -213c0 -124 -87 -215 -205 -215c-100 0 -154 57 -197 123c-42 -66 -97 -123 -200 -123c-117 0 -204 91 -204 214s87 214 204 214c100 0 154 -57 197 -123c43 66 97 123 200 123zM228 201c69 0 108 44 143 100c-35 53 -75 96 -143 96
c-50 0 -87 -42 -87 -98c0 -57 37 -98 87 -98zM625 202c51 0 88 41 88 98c0 56 -37 97 -88 97c-68 0 -107 -44 -142 -99c35 -54 75 -96 142 -96z" />
    <glyph glyph-name="integral" unicode="&#x222b;" horiz-adv-x="390" 
d="M403 829l-18 -110c-21 8 -37 11 -55 11c-58 0 -80 -29 -80 -108c0 -94 25 -410 25 -515c0 -177 -52 -245 -188 -245c-46 0 -76 7 -107 26l21 110c26 -12 44 -18 65 -18c59 0 83 32 83 115c0 105 -27 415 -27 512c0 176 52 244 187 244c32 0 58 -7 94 -22z" />
    <glyph glyph-name="approxequal" unicode="&#x2248;" horiz-adv-x="510" 
d="M169 528c67 0 105 -50 137 -50c22 0 33 15 33 46h115c0 -115 -37 -170 -113 -170c-68 0 -104 50 -137 50c-21 0 -32 -15 -32 -46h-116c0 115 37 170 113 170zM169 298c67 0 105 -50 137 -50c22 0 33 15 33 46h115c0 -115 -37 -170 -113 -170c-68 0 -104 50 -137 50
c-21 0 -32 -15 -32 -46h-116c0 115 37 170 113 170z" />
    <glyph glyph-name="notequal" unicode="&#x2260;" horiz-adv-x="510" 
d="M332 380l-33 -106h178v-109h-213l-45 -143h-130l45 143h-101v109h136l33 106h-169v109h204l43 137h130l-43 -137h110v-109h-145z" />
    <glyph glyph-name="lessequal" unicode="&#x2264;" horiz-adv-x="510" 
d="M477 527l-332 -129l332 -128v-117l-444 178v134l444 179v-117zM477 2h-444v110h444v-110z" />
    <glyph glyph-name="greaterequal" unicode="&#x2265;" horiz-adv-x="510" 
d="M32 277l333 129l-333 128v117l445 -179v-133l-445 -179v117zM477 2h-444v110h444v-110z" />
    <glyph glyph-name="lozenge" unicode="&#x25ca;" horiz-adv-x="508" 
d="M483 330l-230 -344l-228 344l229 341zM150 330l103 -155l105 155l-104 154z" />
    <glyph glyph-name="zero.dnom" horiz-adv-x="453" 
d="M227 420c120 0 195 -81 195 -211c0 -131 -75 -213 -195 -213s-196 82 -196 213c0 130 76 211 196 211zM227 328c-53 0 -85 -45 -85 -119c0 -75 32 -120 85 -120s85 45 85 120c0 74 -32 119 -85 119z" />
    <glyph glyph-name="one.dnom" horiz-adv-x="274" 
d="M89 0v324h-79v93h201v-417h-122z" />
    <glyph glyph-name="two.dnom" horiz-adv-x="389" 
d="M201 422c88 0 151 -44 151 -111c0 -46 -34 -92 -83 -139l-82 -82h176v-90h-331v75l155 154c21 23 38 48 38 66c0 20 -16 32 -43 32c-34 0 -78 -21 -118 -53l-46 84c57 40 119 64 183 64z" />
    <glyph glyph-name="three.dnom" horiz-adv-x="365" 
d="M217 249l20 -3c60 -10 104 -51 104 -115c0 -80 -66 -136 -169 -136c-62 0 -127 20 -167 52l49 89c32 -36 69 -54 108 -54c38 0 60 18 60 49s-22 46 -61 46h-72v62l94 91h-157v85h295v-66z" />
    <glyph glyph-name="four.dnom" horiz-adv-x="414" 
d="M230 171v89h113v-89h58v-84h-58v-87h-113v87h-207v79l134 251h117l-127 -246h83z" />
    <glyph glyph-name="five.dnom" horiz-adv-x="387" 
d="M162 327v-66c8 2 26 3 33 3c102 0 167 -48 167 -123c0 -88 -69 -146 -177 -146c-58 0 -126 21 -172 53l49 90c32 -37 70 -56 109 -56s60 18 60 51c0 29 -21 45 -60 45c-21 0 -94 -1 -120 -3v242h292v-90h-181z" />
    <glyph glyph-name="six.dnom" horiz-adv-x="410" 
d="M237 422c50 0 107 -14 144 -35l-47 -83c-24 18 -56 27 -90 27c-65 0 -98 -35 -96 -100c18 26 51 44 100 44c85 0 140 -54 140 -136c0 -88 -66 -144 -166 -144c-118 0 -191 79 -191 208c0 132 81 219 206 219zM219 190c-38 0 -59 -20 -59 -51c0 -29 18 -50 58 -50
c36 0 57 17 57 52c0 31 -20 49 -56 49z" />
    <glyph glyph-name="seven.dnom" horiz-adv-x="388" 
d="M215 0h-128l152 327h-105v-60h-107v150h346v-80z" />
    <glyph glyph-name="eight.dnom" horiz-adv-x="416" 
d="M207 422c98 0 160 -45 160 -114c0 -34 -20 -66 -52 -85c46 -19 75 -60 75 -105c0 -76 -71 -123 -182 -123s-182 47 -182 121c0 47 32 88 81 107c-35 20 -58 54 -58 89c0 67 62 110 158 110zM208 345c-37 0 -57 -15 -57 -43c0 -27 20 -42 57 -42s57 15 57 42
c0 28 -20 43 -57 43zM208 176c-43 0 -67 -17 -67 -48c0 -32 24 -48 67 -48s67 16 67 48c0 31 -24 48 -67 48z" />
    <glyph glyph-name="nine.dnom" horiz-adv-x="412" 
d="M175 -5c-51 0 -107 14 -144 35l46 82c25 -17 56 -26 91 -26c64 0 98 34 96 100c-18 -26 -52 -45 -100 -45c-85 0 -140 55 -140 136c0 89 65 145 165 145c119 0 191 -80 191 -208c0 -133 -80 -219 -205 -219zM192 227c39 0 59 20 59 51c0 29 -18 50 -57 50
c-37 0 -57 -17 -57 -52c0 -31 19 -49 55 -49z" />
    <glyph glyph-name="zero.numr" horiz-adv-x="453" 
d="M227 703c120 0 195 -81 195 -211c0 -131 -75 -212 -195 -212s-196 81 -196 212c0 130 76 211 196 211zM227 611c-53 0 -85 -45 -85 -119s32 -119 85 -119s85 45 85 119s-32 119 -85 119z" />
    <glyph glyph-name="one.numr" horiz-adv-x="274" 
d="M89 283v324h-79v93h201v-417h-122z" />
    <glyph glyph-name="two.numr" horiz-adv-x="389" 
d="M201 705c88 0 151 -44 151 -110c0 -47 -34 -93 -83 -140l-82 -81h176v-91h-331v75l155 155c21 22 38 48 38 65c0 21 -16 32 -43 32c-34 0 -78 -20 -118 -53l-46 84c57 40 119 64 183 64z" />
    <glyph glyph-name="three.numr" horiz-adv-x="365" 
d="M217 533l20 -4c60 -10 104 -50 104 -114c0 -80 -66 -137 -169 -137c-62 0 -127 21 -167 52l49 89c32 -36 69 -54 108 -54c38 0 60 18 60 49s-22 47 -61 47h-72v61l94 92h-157v85h295v-67z" />
    <glyph glyph-name="four.numr" horiz-adv-x="414" 
d="M230 455v89h113v-89h58v-84h-58v-88h-113v88h-207v78l134 251h117l-127 -245h83z" />
    <glyph glyph-name="five.numr" horiz-adv-x="387" 
d="M162 610v-65c8 1 26 2 33 2c102 0 167 -48 167 -123c0 -88 -69 -146 -177 -146c-58 0 -126 22 -172 53l49 90c32 -37 70 -55 109 -55s60 17 60 50c0 29 -21 45 -60 45c-21 0 -94 -1 -120 -3v242h292v-90h-181z" />
    <glyph glyph-name="six.numr" horiz-adv-x="410" 
d="M237 705c50 0 107 -14 144 -35l-47 -82c-24 18 -56 27 -90 27c-65 0 -98 -36 -96 -101c18 26 51 44 100 44c85 0 140 -54 140 -135c0 -88 -66 -145 -166 -145c-118 0 -191 80 -191 208c0 132 81 219 206 219zM219 473c-38 0 -59 -20 -59 -51c0 -28 18 -50 58 -50
c36 0 57 18 57 52c0 32 -20 49 -56 49z" />
    <glyph glyph-name="seven.numr" horiz-adv-x="388" 
d="M215 283h-128l152 327h-105v-59h-107v149h346v-79z" />
    <glyph glyph-name="eight.numr" horiz-adv-x="416" 
d="M207 705c98 0 160 -44 160 -114c0 -34 -20 -66 -52 -85c46 -19 75 -59 75 -104c0 -76 -71 -124 -182 -124s-182 48 -182 121c0 47 32 88 81 107c-35 20 -58 54 -58 89c0 67 62 110 158 110zM208 628c-37 0 -57 -15 -57 -43c0 -27 20 -41 57 -41s57 14 57 41
c0 28 -20 43 -57 43zM208 460c-43 0 -67 -18 -67 -48c0 -32 24 -49 67 -49s67 16 67 48c0 31 -24 49 -67 49z" />
    <glyph glyph-name="nine.numr" horiz-adv-x="412" 
d="M175 278c-51 0 -107 14 -144 36l46 81c25 -17 56 -26 91 -26c64 0 98 35 96 100c-18 -25 -52 -45 -100 -45c-85 0 -140 55 -140 137c0 88 65 144 165 144c119 0 191 -80 191 -208c0 -132 -80 -219 -205 -219zM192 510c39 0 59 20 59 51c0 29 -18 51 -57 51
c-37 0 -57 -18 -57 -52c0 -32 19 -50 55 -50z" />
    </font>
</defs>
</svg>
